<?xml version="1.0" encoding="utf-8"?>
<!-- Generator: Adobe Illustrator 26.3.1, SVG Export Plug-In . SVG Version: 6.00 Build 0)  -->
<svg version="1.1" id="Layer_1" xmlns="http://www.w3.org/2000/svg" xmlns:xlink="http://www.w3.org/1999/xlink" x="0px" y="0px"
	 viewBox="0 0 188 72" enable-background="new 0 0 188 72" xml:space="preserve">
<path fill-rule="evenodd" clip-rule="evenodd" fill="#0080C7" d="M118.416,55.644v0.6l4.26,2.76v-2.412
	c0-7.884,0.012-15.756,0.012-23.64h0.036c0-0.18-0.012-0.36-0.012-0.54c0-8.436,6.84-15.264,15.264-15.264c0.144,0,0.288,0,0.444,0
	c7.2,0,41.58,0,47.496,0v-4.26h-1.44h-3.012H138.42c-0.144,0-0.288-0.012-0.444-0.012c-10.752,0-19.488,8.7-19.536,19.44h-0.024
	C118.416,40.092,118.416,47.868,118.416,55.644z M181.74,55.644v0.6l4.26,2.76v-2.4c0-7.68,0-15.36,0-23.028h-0.012V32.94
	c0-0.768,0.036-1.5-0.048-2.268c-0.576-5.256-5.196-9.084-10.452-9.372v-0.024h-0.636h-12h-25.284v0.012
	c-5.844,0.3-10.5,5.1-10.572,11.004v0.048v6.912l0.012,8.208c0,0.768-0.036,1.5,0.048,2.268c0.6,5.472,5.592,9.396,11.124,9.396
	c6.036,0,10.956-4.764,11.184-10.728h0.012v-0.348v-3.3h0.012v-4.296c-3.984,0-7.716-1.296-10.752-3.552
	c-2.784-2.064-4.968-4.92-6.204-8.316c1.188-1.764,3.168-2.952,5.436-3.048h24.684h0.612c1.488,0.072,2.856,0.612,3.96,1.476
	l0.072,0.048c0.684,0.552,1.272,1.248,1.704,2.028c-2.304-1.26-4.908-1.512-7.26-0.876c-2.436,0.648-4.62,2.232-5.976,4.584v0.012
	c-1.356,2.352-1.632,5.04-0.984,7.464c0.648,2.436,2.232,4.62,4.584,5.976c0.756,0.432,1.56,0.768,2.376,0.984
	c0.732,0.204,1.488,0.312,2.244,0.336V43.26c-0.384-0.024-0.768-0.084-1.14-0.18c-0.468-0.12-0.924-0.312-1.332-0.552
	c-1.332-0.768-2.22-1.992-2.592-3.372c-0.372-1.38-0.216-2.892,0.552-4.212c0.768-1.32,1.992-2.22,3.372-2.592
	c1.38-0.372,2.892-0.216,4.212,0.552c0.852,0.492,1.548,1.2,2.028,2.04c0.204,0.348,0.372,0.732,0.492,1.128
	c0.228,0.768,0.276,1.812,0.276,2.628v0.66c-0.108,0-0.216-0.012-0.324-0.012v0.024h-3.576v8.172h4.164V43.68
	c0.288,0.024,0.576,0.084,0.852,0.156c0.468,0.12,0.924,0.312,1.332,0.552c1.32,0.768,2.22,1.992,2.592,3.372
	c0.36,1.368,0.216,2.88-0.54,4.2v0.012c-0.768,1.332-2.004,2.22-3.372,2.592c-1.332,0.36-2.796,0.228-4.092-0.48l-0.132-0.072
	c-0.852-0.492-1.548-1.2-2.028-2.04c-0.408-0.708-0.66-1.524-0.72-2.376H159.6c0.06,1.608,0.528,3.156,1.32,4.524
	c0.828,1.428,2.016,2.652,3.48,3.528l0.132,0.072c2.352,1.356,5.028,1.632,7.464,0.984c2.388-0.636,4.548-2.184,5.904-4.464
	l0.06-0.12c1.368-2.352,1.644-5.04,0.984-7.464c-0.648-2.436-2.232-4.62-4.584-5.976c-0.108-0.072-0.228-0.132-0.348-0.192
	c0-2.52,0-5.028-0.012-7.56c0-0.768,0.036-1.5-0.048-2.268c-0.216-1.932-0.972-3.684-2.112-5.124h2.724h0.612
	c1.488,0.072,2.856,0.612,3.96,1.476l0.072,0.048c1.524,1.236,2.52,3.108,2.556,5.22C181.74,32.28,181.74,54.528,181.74,55.644z
	 M145.092,48.396V44.34c-3.288-0.648-6.36-2.028-9-3.984c-1.836-1.356-3.468-3-4.812-4.872c0,8.628,0,12.624,0,12.624
	c0.048,2.112,1.032,3.984,2.568,5.22l0.072,0.048c1.176,0.924,2.664,1.476,4.284,1.476
	C141.864,54.852,144.864,51.996,145.092,48.396z"/>
<path fill-rule="evenodd" clip-rule="evenodd" fill="#EC1B2E" d="M103.068,33.972c2.58,0,4.944,0.876,6.828,2.352
	c0-2.412,0-4.044,0-4.044c-0.048-2.1-1.032-3.984-2.568-5.22l-0.072-0.048c-1.164-0.912-2.628-1.464-4.212-1.476v0.012h-0.348h-4.8
	H92.04h-4.032v26.148h0.024v1.908v3.012v2.4l-4.26-2.76v-3.348V25.536H52.536h-0.6c-0.024,2.172,0.612,4.248,1.764,5.988l0.084,0.12
	c1.44,2.112,3.636,3.72,6.288,4.368c0.12,0.024,0.252,0.06,0.384,0.084c0.828,0.168,1.68,0.24,2.52,0.204
	c0.384-0.012,0.78-0.048,1.164-0.108c0.528-1.092,1.236-2.112,2.148-3.012c4.332-4.332,11.352-4.332,15.684,0l0.036,0.036
	l-2.088,2.1l-5.712,5.712l4.848,4.848l2.952,2.952l-0.036,0.036c-4.236,4.236-11.04,4.332-15.384,0.288
	c-0.768,2.052-1.968,3.888-3.48,5.412c-2.748,2.748-6.528,4.44-10.716,4.44s-7.968-1.692-10.716-4.44
	c-2.748-2.748-4.44-6.528-4.44-10.716h0.024l0.048-22.572h4.284l-0.06,22.572h0.012v0.072c0.024,2.964,1.224,5.652,3.18,7.608
	c1.968,1.968,4.68,3.18,7.668,3.18c3,0,5.712-1.212,7.68-3.18c1.272-1.272,2.232-2.856,2.748-4.644
	c-1.704,1.056-3.72,1.668-5.88,1.668c-3.768,0-7.284-1.836-9.324-4.752c-0.948-1.344-1.572-2.916-1.764-4.644
	c-0.084-0.768-0.048-1.488-0.048-2.268l-0.012-8.208v-6.744v-0.66h46.284h5.856h5.1h0.048c5.496,0.024,10.44,3.948,11.04,9.396
	c0.084,0.768,0.048,1.488,0.048,2.268l0.012,8.208v3.924v8.532v3.012v2.4l-4.26-2.76c0-1.644,0-7.02,0-12.264
	c-0.516-3.3-3.384-5.82-6.828-5.82c-3.816,0-6.912,3.096-6.912,6.912s3.096,6.912,6.912,6.912h0.048v4.176h-0.048
	c-6.12,0-11.088-4.968-11.088-11.088C91.98,38.94,96.948,33.972,103.068,33.972z M14.916,48.396V44.34
	c3.288-0.648,6.36-2.028,9-3.984c1.836-1.356,3.456-3,4.812-4.872c0,6.912,0,12.624,0,12.624c-0.048,2.112-1.044,3.984-2.568,5.22
	l-0.072,0.048c-1.176,0.924-2.664,1.476-4.284,1.476C18.144,54.852,15.132,51.996,14.916,48.396z M10.62,44.748v3.3v0.348h0.012
	c0.228,5.964,5.148,10.728,11.184,10.728c5.532,0,10.524-3.936,11.124-9.396c0.084-0.768,0.048-1.488,0.048-2.268L33,39.252V21.216
	h-4.272h-6.996h-0.096C15.576,21.3,10.668,26.208,10.62,32.28h4.26c0.048-3.72,3.036-6.732,6.744-6.804h6.816
	c-0.432,2.124-0.972,3.768-2.136,5.82c-1.26,2.208-2.952,4.116-4.956,5.592c-3.036,2.244-6.768,3.552-10.752,3.552v4.296h0.024
	V44.748L10.62,44.748z M71.232,38.076l3.9-3.9c-2.088-0.312-4.296,0.336-5.916,1.944c-2.7,2.7-2.7,7.08,0,9.78
	c1.608,1.608,3.816,2.256,5.904,1.944l-6.828-6.828L71.232,38.076z M50.028,34.512c0,1.848,0,3.012,0,3.012
	c0.048,2.112,1.032,3.984,2.568,5.22l0.072,0.048c0.492,0.396,1.044,0.708,1.632,0.96c0.816,0.336,1.704,0.516,2.628,0.516
	c0.96,0,1.872-0.192,2.7-0.552c1.308-0.552,2.412-1.512,3.156-2.7c-1.092,0.012-2.184-0.096-3.264-0.312
	C55.512,39.9,52.2,37.596,50.028,34.512z M1.2,56.244l4.26,2.76c0-7.92,0.012-15.84,0.012-23.76c0-1.356-0.036-3.132,0.12-4.488
	c0.816-7.644,7.296-13.608,15.168-13.608c30.264,0,63.156,0.012,93.42,0.012V12.9c-30.264,0-63.156-0.024-93.42-0.024
	c-9.948,0-18.168,7.44-19.38,17.064c-0.204,1.584-0.18,3.084-0.18,4.656C1.2,41.82,1.2,49.032,1.2,56.244z"/>
</svg>
