<?xml version="1.0" encoding="utf-8"?>
<!-- Generator: Adobe Illustrator 26.3.1, SVG Export Plug-In . SVG Version: 6.00 Build 0)  -->
<svg version="1.1" id="Layer_1" xmlns="http://www.w3.org/2000/svg" xmlns:xlink="http://www.w3.org/1999/xlink" x="0px" y="0px"
	 viewBox="0 0 174 92" enable-background="new 0 0 174 92" xml:space="preserve">
<path fill-rule="evenodd" clip-rule="evenodd" fill="#FFFFFF" d="M109.753,63.183v0.513l3.977,2.409v-2.093
	c0-6.852,0.021-13.704,0.021-20.536h0.042c0-0.158-0.021-0.316-0.021-0.474c0-7.326,6.401-13.27,14.291-13.27
	c0.127,0,0.276,0,0.404,0v-0.02c6.741,0,38.938,0,44.467,0V26h-44.446c-0.127,0-0.276,0-0.404,0
	c-10.08,0-18.246,7.563-18.289,16.903h-0.021C109.753,49.656,109.753,56.429,109.753,63.183z M169.042,63.183v0.513l3.998,2.409
	v-2.093c0-6.674,0-13.349,0-20.023v-0.553c0-0.671,0.021-1.303-0.042-1.975c-0.532-4.561-4.87-7.899-9.783-8.155h-35.492v0.02
	c-5.466,0.257-9.825,4.443-9.889,9.577v13.171c0,0.671-0.021,1.303,0.042,1.955c0.575,4.759,5.232,8.175,10.421,8.175
	c5.656,0,10.25-4.147,10.463-9.32v-6.891c-3.722,0-7.231-1.125-10.059-3.08c-2.595-1.797-4.657-4.285-5.806-7.227
	c1.106-1.54,2.977-2.567,5.083-2.646h23.69c1.382,0.059,2.679,0.533,3.7,1.284l0.064,0.04c0.638,0.494,1.191,1.086,1.595,1.757
	c-2.148-1.106-4.594-1.323-6.805-0.77c-2.276,0.553-4.317,1.935-5.593,3.989v0.02c-1.276,2.034-1.531,4.384-0.915,6.477
	c0.617,2.113,2.085,4.009,4.296,5.193c0.702,0.375,1.446,0.671,2.233,0.849c0.702,0.178,1.404,0.276,2.105,0.296v-3.732
	c-0.361-0.02-0.723-0.059-1.063-0.158c-0.446-0.118-0.85-0.276-1.255-0.474c-1.233-0.671-2.084-1.738-2.424-2.923
	s-0.212-2.508,0.511-3.653c0.723-1.145,1.871-1.915,3.147-2.251c1.297-0.316,2.701-0.197,3.955,0.474
	c0.808,0.434,1.446,1.047,1.893,1.777c0.191,0.296,0.34,0.632,0.447,0.987c0.212,0.671,0.255,1.58,0.255,2.291v0.573
	c-0.107,0-0.213-0.02-0.298-0.02v0.02h-3.339v7.109h3.892v-3.357c0.276,0.02,0.532,0.079,0.787,0.138
	c0.446,0.099,0.872,0.276,1.255,0.474c1.233,0.671,2.084,1.738,2.424,2.922c0.34,1.185,0.212,2.508-0.511,3.653
	c-0.723,1.165-1.871,1.935-3.147,2.251c-1.255,0.316-2.616,0.198-3.828-0.415l-0.127-0.059c-0.787-0.415-1.446-1.047-1.893-1.777
	c-0.383-0.612-0.617-1.323-0.681-2.073h-4.019c0.064,1.402,0.489,2.745,1.234,3.929c0.765,1.244,1.892,2.31,3.253,3.061l0.128,0.059
	c2.212,1.185,4.721,1.422,6.996,0.849c2.233-0.553,4.254-1.896,5.529-3.89l0.064-0.099c1.276-2.054,1.531-4.384,0.915-6.497
	c-0.617-2.113-2.084-4.009-4.296-5.193c-0.106-0.059-0.213-0.118-0.319-0.158c0-2.192,0-4.364,0-6.576
	c0-0.671,0.021-1.303-0.043-1.975c-0.191-1.678-0.914-3.199-1.977-4.463h3.126c1.403,0.059,2.679,0.533,3.7,1.284l0.064,0.04
	c1.425,1.086,2.36,2.705,2.403,4.542C169.042,42.863,169.042,62.215,169.042,63.183z M134.719,56.883v-3.535
	c-3.084-0.573-5.954-1.757-8.421-3.475c-1.723-1.185-3.233-2.607-4.509-4.226c0,7.504,0,10.979,0,10.979
	c0.043,1.836,0.957,3.456,2.403,4.522l0.064,0.04c1.106,0.79,2.51,1.284,4.019,1.284C131.699,62.492,134.506,60.004,134.719,56.883z
	"/>
<path fill-rule="evenodd" clip-rule="evenodd" fill="#FFFFFF" d="M95.377,44.344c2.403,0,4.636,0.75,6.401,2.034
	c0-2.093,0-3.515,0-3.515c-0.042-1.836-0.957-3.456-2.403-4.542l-0.064-0.04c-1.085-0.81-2.467-1.284-3.955-1.284H81.278v22.728
	h0.021v6.358l-3.977-2.409V36.998H47.508c-0.021,1.896,0.574,3.693,1.659,5.193l0.064,0.118c1.34,1.836,3.403,3.238,5.891,3.791
	c0.128,0.02,0.234,0.059,0.362,0.079c0.787,0.158,1.574,0.197,2.36,0.178c0.362-0.02,0.723-0.04,1.106-0.099
	c0.489-0.948,1.148-1.837,1.999-2.626c4.062-3.752,10.633-3.752,14.673,0l0.021,0.04l-7.315,6.793l7.315,6.793l-0.021,0.02
	c-3.955,3.673-10.335,3.752-14.397,0.237c-0.723,1.777-1.85,3.377-3.254,4.7c-2.573,2.37-6.125,3.851-10.037,3.851
	c-3.913,0-7.464-1.481-10.037-3.851c-2.573-2.389-4.147-5.687-4.147-9.32h0.021l0.042-19.628h3.977l-0.064,19.628v0.059
	c0.021,2.587,1.148,4.917,2.977,6.615c1.829,1.698,4.381,2.764,7.188,2.764c2.807,0,5.338-1.047,7.188-2.764
	c1.191-1.106,2.084-2.488,2.573-4.028c-1.595,0.928-3.487,1.461-5.508,1.461c-3.53,0-6.826-1.599-8.74-4.127
	c-0.872-1.165-1.467-2.547-1.637-4.048c-0.085-0.671-0.043-1.303-0.043-1.975V33.306h53.611c5.146,0.02,9.761,3.436,10.335,8.155
	c0.085,0.671,0.043,1.303,0.043,1.975v22.649l-3.977-2.409c0-1.422,0-6.102,0-10.663c-0.489-2.863-3.169-5.075-6.401-5.075
	c-3.573,0-6.465,2.686-6.465,6.003c0,3.317,2.892,6.003,6.465,6.003h0.043v3.633h-0.043c-5.721,0-10.378-4.325-10.378-9.636
	C85,48.649,89.657,44.344,95.377,44.344z M12.866,56.883v-3.535c3.083-0.573,5.954-1.757,8.421-3.475
	c1.723-1.185,3.232-2.607,4.508-4.226c0,6.003,0,10.979,0,10.979c-0.042,1.836-0.957,3.456-2.403,4.522l-0.064,0.039
	c-1.106,0.81-2.488,1.284-4.019,1.284C15.886,62.491,13.057,60.003,12.866,56.883z M8.825,56.863h0.021
	c0.213,5.174,4.827,9.32,10.463,9.32c5.189,0,9.846-3.416,10.42-8.175c0.085-0.671,0.064-1.284,0.064-1.955V33.246H19.161
	c-5.678,0.059-10.271,4.344-10.314,9.617h3.998c0.043-3.238,2.85-5.845,6.316-5.924h6.38c-0.404,1.836-0.914,3.278-1.999,5.055
	c-1.17,1.915-2.765,3.574-4.636,4.858c-2.828,1.955-6.337,3.08-10.08,3.08V56.863z M69.242,44.522
	c-1.956-0.257-4.04,0.296-5.529,1.698c-2.531,2.35-2.531,6.161,0,8.491c1.51,1.402,3.573,1.955,5.529,1.698l-6.401-5.944
	L69.242,44.522z M45.722,44.798c0,1.599,0,2.626,0,2.626c0.042,1.836,0.957,3.456,2.403,4.542l0.064,0.04
	c0.468,0.336,0.978,0.632,1.531,0.829c0.766,0.296,1.595,0.454,2.467,0.454c0.893,0,1.744-0.178,2.531-0.474
	c1.233-0.474,2.275-1.303,2.956-2.35c-1.021,0.02-2.042-0.079-3.041-0.277C50.847,49.478,47.763,47.484,45.722,44.798z M0,63.695
	l3.998,2.409c0-6.891,0.021-13.783,0.021-20.655c0-1.185-0.021-2.725,0.106-3.89c0.766-6.655,6.848-11.828,14.206-11.828
	c28.326,0,59.119,0.02,87.445,0v-3.693c-28.326,0-59.119-0.02-87.445-0.02c-9.314,0-17.013,6.457-18.14,14.83
	c-0.191,1.362-0.17,2.666-0.17,4.048C0,51.156,0,57.436,0,63.695z"/>
</svg>
