<?xml version="1.0" encoding="utf-8"?>
<!-- Generator: Adobe Illustrator 26.3.1, SVG Export Plug-In . SVG Version: 6.00 Build 0)  -->
<svg version="1.1" id="Layer_1" xmlns="http://www.w3.org/2000/svg" xmlns:xlink="http://www.w3.org/1999/xlink" x="0px" y="0px"
	 viewBox="0 0 192 92" enable-background="new 0 0 192 92" xml:space="preserve">
<path fill="#EBF5EC" d="M154.537,46.018h10.73v3.063h-3.495v14.002h-3.709V49.081h-3.496L154.537,46.018z M148.888,46.018h3.748
	v17.087h-3.748V46.018z M191.965,46.018v3.063h-3.53v14.002h-3.696V49.081h-3.517v-3.063H191.965z M119.468,46.018h3.386v17.065
	h-3.386l-5.243-9.968v9.968h-3.386V46.018h3.386l5.243,9.972V46.018z M135.882,57.998c0,3.356-2.08,5.408-5.767,5.408
	c-1.651,0.02-3.279-0.395-4.719-1.203l0.477-3.063c1.229,0.772,2.643,1.198,4.093,1.234c1.547,0,2.29-0.783,2.29-1.956
	c0-3.063-6.79-2-6.79-7.5c0-2.897,1.704-5.181,5.632-5.181c1.368-0.016,2.723,0.272,3.967,0.845l-0.415,2.993
	c-1.011-0.478-2.111-0.736-3.229-0.757c-1.857,0-2.307,0.875-2.307,1.75c0,2.625,6.776,1.75,6.776,7.439 M175.831,46.026h3.67
	v11.276c0,4.109-2.106,6.126-6.208,6.126c-4.103,0-6.244-2.004-6.244-6.126V46.018h3.71v11.141c0,1.965,0.725,3.063,2.547,3.063
	s2.525-1.094,2.525-3.063V46.026z M103.373,46.026h3.744v17.087h-3.744V46.026z M136.271,46.026h10.734v3.063h-3.517v14.002h-3.705
	V49.089h-3.495L136.271,46.026z M191.585,39.944h-11.394V22.24h11.141v3.164h-7.344v3.877h6.243v3.124h-6.243v4.376h7.597V39.944z
	 M126.371,24.865c2.398,0,3.556,1.514,3.556,6.209c0,4.695-1.158,6.244-3.535,6.244c-2.376,0-3.582-1.558-3.582-6.262
	s1.175-6.209,3.561-6.209 M126.371,40.438c5.024,0,7.427-2.704,7.427-9.382c0-6.537-2.416-9.355-7.427-9.355
	c-5.012,0-7.458,2.818-7.458,9.355c0,6.537,2.551,9.399,7.458,9.399 M140.565,36.78h7.606v3.164h-11.394V22.24h11.145v3.164h-7.357
	v3.877h6.239v3.124h-6.239V36.78z M153.357,39.944V25.417h-3.836V22.24h11.512v3.177h-3.844v14.527H153.357z M172.65,32.391h-5.679
	v7.553h-3.801V22.24h3.801v7.001h5.679V22.24h3.793v17.704h-3.793V32.391z M102.097,31.131c0-6.336,3.521-9.189,8.965-9.189
	c1.617,0.002,3.222,0.274,4.749,0.805l-0.371,3.089c-1.338-0.472-2.745-0.719-4.164-0.731c-3.163,0-5.282,1.444-5.282,5.977
	c0,4.608,2.097,6.043,4.806,6.043c0.536,0.002,1.072-0.031,1.603-0.101V32.65h-2.438v-3.063h6.117v9.745
	c-1.197,0.564-3.399,0.963-5.199,0.963c-5.544,0-8.795-2.971-8.795-9.163 M86.303,46.009h3.556c-0.002,8.9-2.638,17.6-7.577,24.999
	c-4.938,7.399-11.956,13.165-20.166,16.57c-8.21,3.405-17.244,4.294-25.959,2.556c-8.715-1.738-16.72-6.025-23.003-12.319
	C6.873,71.521,2.595,63.502,0.862,54.773c-1.732-8.729-0.842-17.777,2.56-25.999s9.161-15.249,16.55-20.193
	C27.361,3.637,36.048,0.999,44.934,1v3.584c-8.178,0.005-16.17,2.439-22.967,6.993C15.17,16.131,9.874,22.601,6.749,30.17
	c-3.126,7.568-3.941,15.895-2.342,23.928c1.599,8.032,5.54,15.41,11.324,21.199c5.785,5.789,13.153,9.731,21.174,11.326
	c8.021,1.595,16.334,0.773,23.889-2.363c7.554-3.136,14.011-8.445,18.553-15.256s6.966-14.818,6.965-23.008 M44.934,80.152
	c9.048,0,17.725-3.598,24.124-10.004s9.997-15.095,10.001-24.157h3.591c0,7.474-2.213,14.781-6.36,20.996
	s-10.04,11.058-16.935,13.918c-6.895,2.86-14.482,3.607-21.801,2.148c-7.319-1.459-14.042-5.06-19.318-10.346
	S9.369,60.687,7.915,53.355c-1.454-7.331-0.705-14.93,2.152-21.834c2.858-6.905,7.696-12.806,13.902-16.956
	c6.206-4.151,13.502-6.365,20.965-6.362v3.636c-4.511-0.051-8.987,0.794-13.169,2.488c-4.182,1.694-7.987,4.201-11.195,7.378
	c-3.208,3.177-5.754,6.959-7.493,11.128c-1.738,4.169-2.633,8.642-2.633,13.16s0.895,8.991,2.633,13.161
	c1.738,4.169,4.285,7.952,7.493,11.128c3.208,3.177,7.013,5.684,11.195,7.378c4.182,1.693,8.658,2.539,13.169,2.488 M71.812,45.991
	h3.596c0.004,6.042-1.781,11.949-5.129,16.974c-3.348,5.025-8.11,8.943-13.682,11.257c-5.572,2.314-11.704,2.921-17.621,1.744
	c-5.917-1.177-11.351-4.086-15.617-8.357c-4.266-4.272-7.17-9.715-8.347-15.64c-1.176-5.926-0.571-12.067,1.738-17.649
	s6.221-10.351,11.237-13.705c5.017-3.354,10.915-5.143,16.947-5.14v3.623c-5.311,0.004-10.501,1.586-14.915,4.544
	s-7.852,7.161-9.882,12.076c-2.029,4.916-2.558,10.323-1.519,15.54c1.039,5.216,3.599,10.007,7.356,13.766
	c3.757,3.759,8.543,6.319,13.752,7.354s10.608,0.501,15.514-1.536s9.099-5.485,12.048-9.909
	C70.239,56.51,71.813,51.31,71.812,45.991z M64.673,45.991h3.565c0.004,4.614-1.359,9.125-3.916,12.963
	c-2.557,3.838-6.192,6.831-10.447,8.599s-8.938,2.234-13.456,1.337c-4.519-0.897-8.67-3.116-11.93-6.376
	c-3.26-3.26-5.481-7.415-6.382-11.94s-0.443-9.215,1.317-13.479c1.76-4.264,4.743-7.909,8.572-10.474
	c3.829-2.566,8.331-3.936,12.938-3.939v3.579c-3.896,0.006-7.702,1.169-10.938,3.341c-3.236,2.172-5.757,5.256-7.244,8.863
	c-1.487,3.607-1.872,7.574-1.109,11.4c0.764,3.826,2.643,7.34,5.399,10.096c2.757,2.757,6.268,4.633,10.089,5.392
	c3.821,0.759,7.782,0.366,11.38-1.128s6.674-4.024,8.838-7.269c2.164-3.245,3.319-7.059,3.319-10.961 M57.495,45.996h3.552
	c0.002,3.195-0.943,6.319-2.714,8.976c-1.771,2.657-4.29,4.729-7.237,5.952c-2.947,1.223-6.19,1.544-9.319,0.921
	c-3.129-0.623-6.003-2.161-8.259-4.421c-2.256-2.259-3.792-5.138-4.414-8.272c-0.622-3.134-0.302-6.382,0.92-9.333
	c1.222-2.952,3.29-5.474,5.943-7.248c2.653-1.774,5.772-2.72,8.962-2.718v3.588c-2.478,0.006-4.898,0.747-6.955,2.131
	c-2.057,1.383-3.659,3.346-4.603,5.64c-0.944,2.294-1.188,4.818-0.701,7.251c0.487,2.433,1.683,4.667,3.438,6.42
	c1.754,1.753,3.988,2.945,6.418,3.427c2.431,0.482,4.949,0.232,7.238-0.72c2.289-0.951,4.244-2.56,5.62-4.624
	C56.76,50.903,57.495,48.477,57.495,45.996z M73.476,30.164c-2.52,0.001-4.984-0.747-7.08-2.149
	c-2.096-1.402-3.729-3.395-4.694-5.727c-0.965-2.332-1.217-4.898-0.725-7.374c0.492-2.476,1.706-4.75,3.488-6.534
	c1.782-1.785,4.053-3,6.525-3.491c2.472-0.492,5.034-0.238,7.362,0.729c2.328,0.967,4.317,2.604,5.716,4.703
	c1.399,2.099,2.145,4.568,2.143,7.092c0,1.675-0.329,3.333-0.969,4.88c-0.64,1.547-1.578,2.953-2.761,4.137
	c-1.183,1.184-2.587,2.123-4.132,2.764C76.804,29.835,75.148,30.165,73.476,30.164z M73.476,1c-3.241,0-6.41,0.963-9.105,2.766
	c-2.695,1.804-4.795,4.367-6.036,7.366c-1.24,2.999-1.565,6.299-0.932,9.483c0.632,3.184,2.193,6.108,4.485,8.404
	c2.292,2.295,5.212,3.859,8.391,4.492c3.179,0.633,6.474,0.308,9.468-0.934c2.995-1.242,5.554-3.346,7.355-6.045
	c1.801-2.699,2.762-5.873,2.762-9.119c0.001-2.155-0.423-4.29-1.246-6.281c-0.823-1.991-2.03-3.801-3.551-5.325
	c-1.521-1.524-3.328-2.733-5.316-3.558C77.763,1.425,75.632,1,73.481,1"/>
</svg>
