<?xml version="1.0" encoding="utf-8"?>
<!-- Generator: Adobe Illustrator 26.3.1, SVG Export Plug-In . SVG Version: 6.00 Build 0)  -->
<svg version="1.1" id="Layer_1" xmlns="http://www.w3.org/2000/svg" xmlns:xlink="http://www.w3.org/1999/xlink" x="0px" y="0px"
	 viewBox="0 0 155 72" enable-background="new 0 0 155 72" xml:space="preserve">
<g>
	<defs>
		<rect id="SVGID_1_" width="155" height="72"/>
	</defs>
	<clipPath id="SVGID_00000067230143290434176500000017887357744763063701_">
		<use xlink:href="#SVGID_1_"  overflow="visible"/>
	</clipPath>
	<g clip-path="url(#SVGID_00000067230143290434176500000017887357744763063701_)">
		<path fill="#8CD024" d="M124.011,36.014h8.611v2.45h-2.805v11.202h-2.976V38.464h-2.805L124.011,36.014z M119.478,36.014h3.008
			v13.67h-3.008V36.014z M154.047,36.014v2.45h-2.833v11.202h-2.966V38.464h-2.823v-2.45H154.047z M95.869,36.014h2.717v13.652
			h-2.717l-4.207-7.974v7.974h-2.717V36.014h2.717l4.207,7.978V36.014z M109.041,45.599c0,2.685-1.669,4.327-4.628,4.327
			c-1.325,0.016-2.63-0.316-3.786-0.963l0.382-2.45c0.987,0.617,2.121,0.958,3.285,0.987c1.241,0,1.837-0.627,1.837-1.565
			c0-2.45-5.448-1.6-5.448-6c0-2.317,1.367-4.145,4.519-4.145c1.098-0.013,2.185,0.218,3.183,0.676l-0.333,2.394
			c-0.811-0.382-1.694-0.589-2.59-0.606c-1.49,0-1.852,0.7-1.852,1.4c0,2.1,5.438,1.4,5.438,5.951 M141.099,36.021h2.945v9.021
			c0,3.287-1.69,4.901-4.982,4.901c-3.292,0-5.01-1.603-5.01-4.901v-9.028h2.977v8.912c0,1.572,0.582,2.45,2.044,2.45
			s2.026-0.875,2.026-2.45V36.021z M82.953,36.021h3.005v13.67h-3.005V36.021z M109.353,36.021h8.614v2.45h-2.822v11.202h-2.973
			V38.471h-2.805L109.353,36.021z M153.742,31.155h-9.144V16.992h8.94v2.531h-5.893v3.102h5.01v2.499h-5.01v3.501h6.097V31.155z
			 M101.409,19.092c1.924,0,2.853,1.211,2.853,4.967s-0.929,4.995-2.836,4.995c-1.907,0-2.875-1.246-2.875-5.009
			s0.943-4.967,2.858-4.967 M101.409,31.551c4.031,0,5.96-2.163,5.96-7.505c0-5.23-1.939-7.484-5.96-7.484
			c-4.022,0-5.985,2.254-5.985,7.484s2.047,7.519,5.985,7.519 M112.799,28.624h6.104v2.531h-9.143V16.992h8.943v2.531h-5.904v3.102
			h5.007v2.499h-5.007V28.624z M123.065,31.155V19.533h-3.078v-2.542h9.238v2.542h-3.086v11.622H123.065z M138.547,25.113h-4.558
			v6.042h-3.05V16.992h3.05v5.601h4.558v-5.601h3.043v14.163h-3.043V25.113z M81.93,24.105c0-5.069,2.826-7.351,7.194-7.351
			c1.297,0.001,2.585,0.219,3.811,0.644l-0.298,2.471c-1.074-0.378-2.203-0.575-3.341-0.585c-2.538,0-4.239,1.155-4.239,4.782
			c0,3.686,1.683,4.834,3.856,4.834c0.43,0.002,0.86-0.025,1.287-0.081V25.32h-1.956v-2.45h4.908v7.796
			c-0.961,0.452-2.728,0.77-4.172,0.77c-4.449,0-7.057-2.377-7.057-7.33 M69.256,36.007h2.854c-0.001,7.12-2.117,14.08-6.08,19.999
			c-3.963,5.919-9.594,10.532-16.183,13.256s-13.838,3.435-20.832,2.045c-6.994-1.39-13.417-4.82-18.459-9.855
			s-8.474-11.45-9.865-18.434c-1.39-6.983-0.675-14.222,2.054-20.799c2.73-6.578,7.351-12.199,13.281-16.154
			C21.957,2.11,28.927-0.001,36.058,0v2.867c-6.562,0.004-12.976,1.951-18.43,5.594c-5.454,3.643-9.704,8.82-12.213,14.875
			S2.253,36.052,3.536,42.478s4.445,12.328,9.087,16.959c4.642,4.632,10.555,7.785,16.992,9.061
			c6.437,1.276,13.108,0.618,19.17-1.89c6.062-2.509,11.243-6.756,14.888-12.205c3.645-5.449,5.59-11.854,5.589-18.407
			 M36.058,63.322c7.26,0,14.224-2.879,19.359-8.004c5.135-5.125,8.022-12.076,8.026-19.325h2.882c0,5.98-1.776,11.825-5.103,16.797
			c-3.327,4.972-8.057,8.847-13.59,11.134c-5.533,2.288-11.621,2.886-17.495,1.719c-5.873-1.167-11.268-4.048-15.502-8.277
			c-4.234-4.229-7.117-9.617-8.284-15.481c-1.167-5.865-0.566-11.944,1.727-17.468c2.293-5.524,6.176-10.244,11.156-13.565
			c4.98-3.321,10.835-5.092,16.824-5.09v2.909c-3.62-0.041-7.212,0.636-10.568,1.99c-3.356,1.355-6.41,3.361-8.984,5.902
			c-2.574,2.541-4.618,5.567-6.013,8.903C9.1,28.802,8.381,32.38,8.381,35.995c0,3.614,0.718,7.193,2.113,10.528
			c1.395,3.335,3.438,6.361,6.013,8.903c2.574,2.541,5.628,4.547,8.984,5.902c3.356,1.355,6.948,2.031,10.568,1.99 M57.627,35.993
			h2.885c0.003,4.833-1.429,9.559-4.116,13.579c-2.687,4.02-6.508,7.154-10.979,9.006c-4.471,1.851-9.392,2.337-14.14,1.395
			c-4.748-0.942-9.109-3.269-12.532-6.686c-3.423-3.417-5.754-7.772-6.698-12.512c-0.944-4.741-0.458-9.654,1.395-14.119
			c1.854-4.465,4.992-8.281,9.018-10.964c4.026-2.684,8.759-4.114,13.599-4.112v2.899c-4.262,0.003-8.427,1.268-11.969,3.635
			s-6.301,5.729-7.93,9.661c-1.628,3.932-2.052,8.259-1.219,12.432c0.834,4.173,2.888,8.006,5.903,11.013s6.855,5.055,11.035,5.883
			c4.18,0.829,8.513,0.401,12.449-1.229c3.937-1.63,7.301-4.388,9.668-7.927C56.365,44.408,57.627,40.248,57.627,35.993z
			 M51.898,35.993h2.861c0.003,3.691-1.091,7.3-3.142,10.37c-2.051,3.07-4.969,5.465-8.383,6.88
			c-3.414,1.415-7.172,1.787-10.798,1.069c-3.626-0.718-6.958-2.493-9.573-5.101c-2.616-2.608-4.398-5.932-5.121-9.552
			c-0.723-3.62-0.356-7.372,1.057-10.783c1.413-3.411,3.807-6.327,6.879-8.379c3.072-2.052,6.685-3.149,10.382-3.151v2.864
			c-3.126,0.005-6.181,0.935-8.778,2.673s-4.62,4.205-5.813,7.09s-1.503,6.059-0.89,9.12c0.613,3.061,2.121,5.872,4.333,8.077
			c2.212,2.205,5.03,3.707,8.096,4.314c3.067,0.607,6.245,0.293,9.132-0.902c2.888-1.196,5.356-3.219,7.092-5.815
			c1.736-2.596,2.663-5.647,2.663-8.769 M46.138,35.996h2.85c0.001,2.556-0.757,5.055-2.178,7.181
			c-1.421,2.126-3.442,3.783-5.807,4.762c-2.365,0.979-4.967,1.235-7.478,0.737c-2.511-0.498-4.817-1.729-6.627-3.536
			c-1.81-1.807-3.043-4.11-3.542-6.617s-0.242-5.105,0.738-7.467c0.98-2.361,2.64-4.379,4.769-5.798
			c2.129-1.419,4.632-2.176,7.192-2.175v2.871c-1.988,0.005-3.931,0.598-5.582,1.705c-1.651,1.106-2.936,2.677-3.694,4.512
			c-0.758,1.836-0.953,3.854-0.562,5.801c0.391,1.947,1.351,3.734,2.759,5.136c1.408,1.402,3.2,2.356,5.15,2.742
			c1.951,0.386,3.972,0.185,5.808-0.576c1.837-0.761,3.406-2.048,4.51-3.699C45.549,39.923,46.138,37.982,46.138,35.996z
			 M58.963,23.331c-2.022,0.001-4-0.598-5.681-1.719c-1.682-1.122-2.993-2.716-3.767-4.582c-0.774-1.866-0.977-3.918-0.582-5.899
			c0.395-1.98,1.369-3.8,2.799-5.227c1.43-1.428,3.253-2.4,5.236-2.793c1.984-0.393,4.04-0.19,5.908,0.583
			c1.868,0.774,3.464,2.083,4.587,3.763c1.123,1.68,1.721,3.654,1.72,5.673c0,1.34-0.264,2.667-0.778,3.904
			c-0.514,1.238-1.266,2.362-2.215,3.31c-0.949,0.947-2.076,1.699-3.316,2.211S60.305,23.332,58.963,23.331z M58.963,0
			c-2.601,0-5.144,0.77-7.306,2.213c-2.163,1.443-3.848,3.494-4.843,5.893c-0.995,2.399-1.256,5.04-0.748,7.587
			c0.507,2.547,1.76,4.887,3.599,6.723c1.839,1.836,4.182,3.087,6.733,3.594c2.551,0.507,5.195,0.247,7.598-0.747
			c2.403-0.994,4.457-2.677,5.902-4.836c1.445-2.159,2.216-4.698,2.216-7.295c0.001-1.724-0.339-3.432-1-5.025
			c-0.66-1.593-1.629-3.041-2.85-4.26C67.043,2.627,65.593,1.66,63.998,1c-1.595-0.66-3.305-1-5.032-1"/>
	</g>
</g>
</svg>
