<?xml version="1.0" encoding="utf-8"?>
<!-- Generator: Adobe Illustrator 26.3.1, SVG Export Plug-In . SVG Version: 6.00 Build 0)  -->
<svg version="1.1" id="Layer_1" xmlns="http://www.w3.org/2000/svg" xmlns:xlink="http://www.w3.org/1999/xlink" x="0px" y="0px"
	 viewBox="0 0 95 64" enable-background="new 0 0 95 64" xml:space="preserve">
<g>
	<defs>
		<rect id="SVGID_1_" width="95" height="64"/>
	</defs>
	<clipPath id="SVGID_00000024698064749903644780000002080326409679267256_">
		<use xlink:href="#SVGID_1_"  overflow="visible"/>
	</clipPath>
	<g clip-path="url(#SVGID_00000024698064749903644780000002080326409679267256_)">
		<path fill="#EBF5EC" d="M63.346,60.29c0.042,0.123,0.021,0.224-0.096,0.259c-0.804,0.186-1.628,0.272-2.453,0.257
			c-2.152,0-3.296-0.751-3.296-3.736v-4.604h-1.414c-0.047-0.003-0.091-0.023-0.123-0.057c-0.032-0.034-0.051-0.079-0.051-0.126
			v-1.639c0-0.046,0.018-0.09,0.051-0.123c0.033-0.033,0.077-0.051,0.123-0.051h1.393v-1.943c-0.002-0.047,0.013-0.092,0.042-0.129
			c0.029-0.037,0.069-0.062,0.115-0.072l2.013-0.57c0.021-0.006,0.043-0.007,0.064-0.002c0.021,0.004,0.041,0.013,0.058,0.027
			c0.017,0.013,0.03,0.031,0.04,0.05c0.009,0.02,0.013,0.041,0.013,0.063v2.576h3.16c0.046,0,0.09,0.018,0.123,0.051
			c0.033,0.033,0.051,0.077,0.051,0.123v1.639c0.001,0.024-0.002,0.047-0.011,0.069c-0.008,0.022-0.021,0.042-0.037,0.059
			c-0.016,0.017-0.036,0.031-0.058,0.04c-0.022,0.009-0.045,0.014-0.069,0.014h-3.15v4.519c0,1.429,0.202,1.682,1.32,1.682
			c0.574-0.004,1.146-0.084,1.699-0.238c0.021-0.006,0.043-0.007,0.065-0.005c0.022,0.003,0.042,0.01,0.061,0.021
			c0.019,0.011,0.035,0.026,0.047,0.044c0.013,0.018,0.021,0.038,0.026,0.059L63.346,60.29z M20.982,38.157l-0.796-0.398
			l0.411-0.994l0.756,0.381L20.982,38.157z M20.473,39.534l-0.841-0.424l0.404-0.978l0.806,0.405L20.473,39.534z M19.963,40.924
			l-0.893-0.448l0.401-0.973l0.86,0.433L19.963,40.924z M19.455,42.314l-0.944-0.476l0.402-0.977l0.902,0.461L19.455,42.314z
			 M18.932,43.705l-0.982-0.495l0.404-0.984l0.958,0.48L18.932,43.705z M18.41,45.119l-1.045-0.521l0.413-0.998l1.008,0.508
			L18.41,45.119z M17.888,46.527l-1.078-0.554l0.421-1.025l1.06,0.521L17.888,46.527z M17.393,47.877l-1.144-0.57l0.393-0.959
			l1.111,0.558L17.393,47.877z M16.871,49.299l-1.196-0.603l0.416-1.004l1.16,0.589L16.871,49.299z M14.981,38.786l-0.851-0.469
			l0.623-0.954l0.815,0.459L14.981,38.786z M14.177,40.106l-0.9-0.499l0.648-0.982l0.871,0.476L14.177,40.106z M13.395,41.399
			l-0.956-0.521l0.627-0.958l0.911,0.509L13.395,41.399z M12.598,42.7L11.6,42.142l0.62-0.94l0.968,0.532L12.598,42.7z
			 M11.825,43.974l-1.045-0.582l0.601-0.916l1.005,0.56L11.825,43.974z M11.017,45.295l-1.097-0.61l0.609-0.921l1.066,0.582
			L11.017,45.295z M15.57,36.127l0.768,0.426l-0.543,0.895l-0.839-0.393L15.57,36.127z M16.414,34.854l0.742,0.361l-0.582,0.949
			l-0.751-0.428L16.414,34.854z M17.245,33.588l0.67,0.37l-0.547,0.893l-0.697-0.388L17.245,33.588z M21.497,36.753l-0.742-0.372
			l0.192-0.469c-0.609-0.181-1.189-0.447-1.724-0.789c-0.841-0.589-1.978-2.032-1.978-2.032L8.311,46.247
			c0.091,0,0.174-0.009,0.268-0.009c0.094,0,0.2,0.009,0.298,0.014l0.806-1.216l1.12,0.607l-0.468,0.765l-0.063-0.01
			c2.012,0.372,3.844,1.401,5.206,2.925l-0.03-0.037l0.104-0.247l1.219,0.603l-0.348,0.933c0.143,0.231,0.286,0.467,0.408,0.713
			l5.271-15.075c0,0-0.146-0.03-0.369-0.083L21.497,36.753z M26.918,31.574c-0.004,1.35-0.479,2.656-1.343,3.695
			c-0.864,1.038-2.063,1.745-3.392,1.997l0.427-1.272c0,0-2.016-0.273-3.214-1.168c-0.931-0.695-2.178-2.391-2.178-2.391
			l-1.318,1.886c-0.547-1.008-0.781-2.155-0.67-3.296c0.11-1.141,0.559-2.223,1.289-3.108l0.879,1.465l0.47-0.765
			c0.183-0.306,0.811-1.157,1.487-1.512c0.953-0.5,2.49-0.798,2.509-0.803l0.378-0.073l-0.124-0.356
			c1.343,0.24,2.559,0.942,3.436,1.985c0.877,1.043,1.36,2.359,1.365,3.721 M67.678,50.644v9.705c0,0.046-0.018,0.09-0.051,0.123
			c-0.033,0.033-0.077,0.051-0.123,0.051h-1.997c-0.024,0.001-0.047-0.002-0.069-0.011c-0.022-0.008-0.042-0.021-0.06-0.037
			c-0.017-0.016-0.031-0.036-0.04-0.058c-0.009-0.022-0.014-0.045-0.014-0.068v-9.705c0-0.024,0.005-0.047,0.014-0.069
			c0.009-0.022,0.023-0.041,0.04-0.057c0.017-0.016,0.037-0.029,0.06-0.037c0.022-0.008,0.046-0.012,0.069-0.011h1.992
			c0.046,0,0.09,0.018,0.123,0.051c0.033,0.033,0.051,0.077,0.051,0.123 M38.464,39.89l-0.911-0.315l0.221-0.494l0.871,0.323
			L38.464,39.89z M37.16,39.431l-0.935-0.327l0.226-0.507l0.933,0.348L37.16,39.431z M35.841,38.972l-0.905-0.315l0.237-0.521
			l0.898,0.325L35.841,38.972z M34.546,38.521l-0.933-0.327l0.244-0.542l0.925,0.334L34.546,38.521z M33.233,38.057l-0.916-0.318
			l0.256-0.561l0.907,0.334L33.233,38.057z M31.929,37.601l-0.911-0.318l0.259-0.582l0.906,0.332L31.929,37.601z M31.157,32.593
			l0.905,0.403l-0.266,0.674l-0.905-0.389L31.157,32.593z M30.623,37.146l-0.907-0.318l0.268-0.598l0.9,0.328L30.623,37.146z
			 M29.89,32.036l0.919,0.407l-0.277,0.695l-0.916-0.396L29.89,32.036z M29.313,36.685l-0.925-0.321l0.277-0.617l0.923,0.334
			L29.313,36.685z M28.657,31.498l0.9,0.395l-0.273,0.695l-0.905-0.389L28.657,31.498z M32.423,33.145l0.916,0.403l-0.266,0.669
			l-0.918-0.393L32.423,33.145z M33.682,33.7l0.907,0.396l-0.259,0.662l-0.909-0.389L33.682,33.7z M34.927,34.247l0.933,0.405
			l-0.258,0.653l-0.935-0.402L34.927,34.247z M36.195,34.8l0.905,0.398l-0.247,0.646l-0.918-0.391L36.195,34.8z M37.459,35.351
			l0.902,0.396l-0.247,0.64l-0.905-0.391L37.459,35.351z M38.699,35.9l0.921,0.402l-0.249,0.627l-0.919-0.395L38.699,35.9z
			 M28.014,36.234l-0.919-0.323l0.285-0.636l0.912,0.337L28.014,36.234z M39.146,38.104c0.179-0.383,0.398-0.745,0.653-1.083
			c-0.016,0.024-0.031,0.04-0.047,0.066h-0.017l0.239-0.627l0.199,0.09l-0.014,0.016c0.084-0.101,0.136-0.16,0.136-0.16
			l-12.751-5.713c0.016,0.113,0.016,0.226,0.026,0.337l0.726,0.316l-0.279,0.707l-0.42-0.183c-0.048,1.11-0.385,2.188-0.977,3.128
			l0.374,0.136l-0.286,0.643l-0.522-0.184c-0.077,0.094-0.148,0.188-0.226,0.276l12.852,4.452c0,0-0.03-1.404,0.329-2.216
			 M27.156,14.423c0-3.259,1.672-4.383,5.572-4.383c1.27,0.003,2.536,0.149,3.773,0.434c0.104,0.014,0.141,0.134,0.104,0.271
			l-0.329,1.94c-0.021,0.101-0.162,0.137-0.226,0.118c-1.129-0.314-2.296-0.473-3.469-0.473c-2.438,0-2.65,0.412-2.65,1.879
			c0,1.343,0.232,1.481,2.805,1.757c3.277,0.36,4.433,1.524,4.433,4.095c0,3.238-1.813,4.371-5.704,4.371
			c-1.303-0.008-2.603-0.148-3.878-0.417c-0.048-0.026-0.084-0.069-0.102-0.12c-0.018-0.052-0.015-0.108,0.006-0.158l0.324-1.934
			c0.011-0.043,0.037-0.081,0.073-0.106c0.036-0.026,0.081-0.037,0.125-0.033c1.171,0.317,2.378,0.482,3.59,0.49
			c2.438,0,2.814-0.434,2.814-1.912c0-1.329-0.216-1.684-2.934-1.964C28.372,17.965,27.156,16.976,27.156,14.423z M46.324,39.734
			c0.007,1.146-0.423,2.253-1.203,3.095c-0.78,0.842-1.851,1.356-2.997,1.439c-1.146,0.083-2.28-0.272-3.174-0.993
			c-0.893-0.721-1.479-1.754-1.637-2.889l1.901,0.643c-0.081-0.907,0.027-1.822,0.319-2.685c0.446-1.19,1.473-2.117,1.473-2.117
			l-1.189-0.551c0.69-0.335,1.453-0.489,2.219-0.449s1.509,0.275,2.159,0.68c0.651,0.406,1.187,0.97,1.559,1.639
			C46.127,38.215,46.323,38.968,46.324,39.734z M38.236,54.292c0.054-1.872,0.331-2.219,1.994-2.219
			c1.713,0,1.934,0.348,1.973,2.217L38.236,54.292z M40.308,50.173c-3.326,0-4.602,1.27-4.602,5.301c0,4.1,1.219,5.341,4.806,5.341
			c1.178,0.009,2.355-0.102,3.51-0.332c0.024-0.01,0.046-0.025,0.064-0.044c0.018-0.019,0.032-0.041,0.042-0.065
			c0.009-0.024,0.014-0.05,0.012-0.076c-0.001-0.026-0.007-0.052-0.019-0.075l-0.296-1.661c-0.013-0.041-0.04-0.076-0.077-0.098
			c-0.037-0.022-0.081-0.03-0.123-0.021c-0.943,0.263-1.918,0.396-2.897,0.395c-2.173,0-2.469-0.294-2.511-2.822h6.108
			c0.07-0.002,0.138-0.03,0.189-0.078c0.051-0.049,0.083-0.114,0.088-0.184C44.602,51.247,43.557,50.173,40.308,50.173z
			 M34.685,53.143V54.9c0,0.046-0.018,0.09-0.051,0.123c-0.033,0.033-0.077,0.051-0.123,0.051H29.59v5.28
			c0,0.046-0.018,0.09-0.051,0.123c-0.033,0.033-0.077,0.051-0.123,0.051h-2.142c-0.046,0-0.09-0.018-0.123-0.051
			C27.119,60.444,27.1,60.4,27.1,60.354V46.927c0-0.046,0.018-0.09,0.051-0.123c0.033-0.033,0.077-0.051,0.123-0.051h8.52
			c0.046,0,0.09,0.018,0.123,0.051c0.033,0.032,0.051,0.077,0.051,0.123v1.781c0,0.046-0.018,0.09-0.051,0.123
			c-0.033,0.033-0.077,0.051-0.123,0.051H29.59v4.079h4.912c0.046,0,0.09,0.018,0.123,0.051c0.033,0.033,0.051,0.077,0.051,0.123
			 M20.362,25.502l-0.348-0.893l0.507-0.414l0.327,0.912L20.362,25.502z M19.537,23.417l0.548-0.445l0.324,0.914l-0.522,0.422
			L19.537,23.417z M19.052,22.181l0.582-0.474l0.324,0.914l-0.555,0.455L19.052,22.181z M18.574,20.964l0.615-0.5l0.324,0.904
			l-0.589,0.466L18.574,20.964z M18.088,19.748l0.656-0.532l0.32,0.9l-0.63,0.5L18.088,19.748z M17.957,19.416l-0.348-0.881
			l0.697-0.561l0.32,0.9L17.957,19.416z M17.261,27.372l-0.496-0.843l0.556-0.386l0.475,0.869L17.261,27.372z M16.077,25.354
			l0.596-0.405l0.465,0.858l-0.561,0.37L16.077,25.354z M15.391,24.181l0.635-0.447l0.477,0.869l-0.604,0.415L15.391,24.181z
			 M14.715,23.034l0.665-0.454l0.475,0.869l-0.641,0.438L14.715,23.034z M14.019,21.851l0.696-0.481l0.481,0.869l-0.676,0.461
			L14.019,21.851z M13.336,20.679l0.733-0.499l0.481,0.885l-0.696,0.485L13.336,20.679z M12.665,19.543l0.771-0.521l0.461,0.852
			l-0.742,0.504L12.665,19.543z M11.997,18.358l0.799-0.546l0.456,0.841l-0.773,0.533L11.997,18.358z M11.3,17.184l0.839-0.565
			l0.46,0.839l-0.811,0.551L11.3,17.184z M16.524,12.987l0.319,0.89l-0.801,0.657l-0.336-0.869L16.524,12.987z M17.297,15.137
			l-0.77,0.627l-0.348-0.897l0.794-0.648L17.297,15.137z M17.741,16.38l-0.738,0.598l-0.348-0.899l0.766-0.617L17.741,16.38z
			 M18.173,17.582l-0.696,0.572l-0.347-0.857l0.724-0.589L18.173,17.582z M21.22,26.147c0.174-0.04,0.279-0.061,0.279-0.061
			l-4.912-14.037c-0.078,0.125-0.174,0.238-0.259,0.36l0.096,0.273l-0.839,0.679l-0.017-0.043c-1.085,1.122-2.467,1.913-3.986,2.28
			l0.38,0.695l-0.839,0.573l-0.514-0.859l0.423-0.287c-0.331,0.056-0.666,0.092-1.001,0.109l7.538,12.57
			c0,0,0.066-0.104,0.174-0.252l-0.284-0.478l0.522-0.358l0.174,0.32c0.276-0.316,0.603-0.583,0.968-0.789
			c0.495-0.241,1.013-0.431,1.546-0.566l-0.174-0.436l0.47-0.391L21.22,26.147z M58.279,15.69c1.72,0,1.935,0.348,1.971,2.212
			h-3.961C56.345,16.046,56.623,15.69,58.279,15.69z M62.071,24.093c0.025-0.01,0.047-0.024,0.066-0.043
			c0.019-0.019,0.033-0.041,0.043-0.065c0.01-0.024,0.014-0.051,0.014-0.077c-0.001-0.026-0.007-0.052-0.018-0.076l-0.305-1.651
			c-0.005-0.021-0.015-0.04-0.028-0.057c-0.013-0.017-0.029-0.031-0.048-0.042s-0.039-0.017-0.06-0.02
			c-0.021-0.003-0.043-0.001-0.063,0.005c-0.943,0.26-1.916,0.391-2.894,0.389c-2.175,0-2.469-0.292-2.514-2.828h6.103
			c0.071,0.002,0.139-0.024,0.192-0.071s0.085-0.112,0.092-0.183c0-4.508-1.036-5.575-4.289-5.575c-3.333,0-4.611,1.269-4.611,5.299
			c0,4.093,1.219,5.341,4.807,5.341C59.739,24.442,60.916,24.326,62.071,24.093z M1.999,7.655c-0.01-1.506,0.428-2.982,1.26-4.239
			c0.831-1.257,2.018-2.24,3.409-2.823C8.059,0.01,9.592-0.148,11.074,0.14c1.481,0.288,2.844,1.008,3.915,2.07
			c1.071,1.062,1.801,2.417,2.099,3.893c0.298,1.477,0.15,3.008-0.425,4.401c-0.575,1.393-1.552,2.583-2.806,3.421
			s-2.729,1.285-4.238,1.285c-0.997,0.003-1.985-0.189-2.908-0.567c-0.923-0.378-1.762-0.933-2.469-1.634
			c-0.708-0.701-1.27-1.535-1.655-2.453C2.202,9.637,2.002,8.652,1.999,7.657 M17.147,55.38c0.012,1.695-0.48,3.356-1.415,4.771
			c-0.935,1.416-2.27,2.522-3.835,3.179c-1.566,0.657-3.292,0.835-4.959,0.512c-1.667-0.323-3.201-1.134-4.406-2.328
			c-1.205-1.195-2.028-2.72-2.363-4.382C-0.167,55.471,0,53.747,0.648,52.18c0.648-1.567,1.747-2.907,3.159-3.85
			s3.072-1.446,4.771-1.445c1.122-0.006,2.234,0.209,3.273,0.633c1.039,0.424,1.983,1.048,2.78,1.836
			c0.797,0.789,1.43,1.726,1.863,2.759c0.433,1.033,0.658,2.141,0.661,3.261 M54.565,57.476c0,2.351-1.315,3.325-4.309,3.325
			c-1.165,0.002-2.327-0.123-3.465-0.374c-0.099-0.019-0.139-0.142-0.099-0.263l0.296-1.654c0.012-0.043,0.041-0.08,0.079-0.102
			c0.039-0.023,0.084-0.03,0.128-0.019c1.05,0.297,2.134,0.457,3.225,0.474c1.417,0,1.7-0.257,1.7-1.305
			c0-0.829-0.174-1.031-1.938-1.208c-2.553-0.238-3.589-1.027-3.589-2.963c0-2.275,1.353-3.227,4.228-3.227
			c1.108,0.01,2.212,0.137,3.293,0.379c0.024,0.01,0.046,0.024,0.065,0.043c0.018,0.019,0.033,0.041,0.042,0.065
			c0.01,0.025,0.014,0.051,0.013,0.077c-0.001,0.026-0.008,0.052-0.019,0.076l-0.305,1.661c-0.014,0.04-0.042,0.074-0.078,0.095
			c-0.037,0.021-0.08,0.028-0.122,0.019c-0.81-0.297-2.114-0.457-3.03-0.457c-1.393,0-1.635,0.259-1.635,1.23
			c0,0.792,0.174,0.961,1.95,1.147C53.78,54.766,54.565,55.66,54.565,57.476z M74.664,28.138h1.992
			c0.024-0.001,0.047,0.002,0.069,0.011c0.022,0.008,0.042,0.021,0.059,0.037c0.017,0.016,0.031,0.036,0.04,0.058
			s0.014,0.045,0.014,0.069v12.047l0.623,1.347c0.022,0.04,0.027,0.086,0.014,0.13c-0.012,0.044-0.041,0.08-0.08,0.103l-1.894,0.756
			c-0.02,0.013-0.042,0.021-0.065,0.025s-0.047,0.003-0.07-0.003c-0.023-0.006-0.044-0.016-0.063-0.03
			c-0.019-0.014-0.034-0.032-0.046-0.052l-0.538-1.27c-0.17-0.328-0.251-0.695-0.235-1.064V28.309c0-0.046,0.018-0.09,0.051-0.123
			c0.033-0.033,0.077-0.051,0.123-0.051 M71.888,29.306c0,1.15-0.205,1.284-1.278,1.284c-1.073,0-1.255-0.134-1.255-1.284
			c0-1.029,0.174-1.15,1.255-1.15C71.692,28.156,71.888,28.277,71.888,29.306z M67.776,47.495c0,1.149-0.197,1.29-1.271,1.29
			c-1.074,0-1.259-0.141-1.259-1.29c0-1.025,0.174-1.143,1.259-1.143S67.776,46.47,67.776,47.495z M71.606,32.278
			c0.046,0,0.09,0.018,0.123,0.051c0.033,0.033,0.051,0.077,0.051,0.123v9.715c0,0.046-0.018,0.09-0.051,0.123
			c-0.033,0.033-0.077,0.051-0.123,0.051h-1.994c-0.046,0-0.09-0.018-0.123-0.051c-0.033-0.033-0.051-0.077-0.051-0.123v-9.718
			c0-0.046,0.018-0.09,0.051-0.123c0.033-0.033,0.077-0.051,0.123-0.051L71.606,32.278z M88.042,17.902
			c0.063-1.856,0.348-2.212,1.997-2.212c1.713,0,1.938,0.348,1.978,2.212H88.042z M94.411,19.367c0-4.508-1.045-5.575-4.29-5.575
			c-3.331,0-4.614,1.269-4.614,5.299c0,4.093,1.219,5.34,4.811,5.34c1.18,0.006,2.358-0.108,3.516-0.339
			c0.024-0.01,0.046-0.025,0.065-0.043c0.018-0.019,0.033-0.041,0.043-0.065c0.01-0.024,0.015-0.05,0.014-0.076
			c0-0.026-0.006-0.052-0.017-0.076l-0.303-1.651c-0.005-0.021-0.014-0.04-0.027-0.057c-0.013-0.017-0.029-0.031-0.047-0.042
			s-0.039-0.018-0.06-0.02c-0.021-0.003-0.042-0.001-0.063,0.005c-0.941,0.257-1.912,0.386-2.887,0.382
			c-2.173,0-2.476-0.292-2.514-2.828h6.103c0.07,0.001,0.139-0.025,0.191-0.072c0.052-0.047,0.086-0.112,0.092-0.182 M78.855,19.112
			c0,2.965,0.362,3.243,2.196,3.243c0.827-0.006,1.648-0.133,2.438-0.377c0.041-0.008,0.084,0,0.12,0.021
			c0.036,0.021,0.063,0.055,0.077,0.095l0.301,1.76c0.037,0.116,0,0.24-0.098,0.259c-1.027,0.22-2.075,0.329-3.125,0.327
			c-3.415,0-4.465-1.248-4.465-5.341c0-4.093,1.045-5.299,4.465-5.299c1.048,0.003,2.093,0.109,3.12,0.318
			c0.023,0.01,0.045,0.024,0.062,0.042c0.018,0.018,0.032,0.04,0.041,0.064c0.009,0.024,0.013,0.049,0.012,0.075
			s-0.007,0.05-0.018,0.073l-0.301,1.759c-0.005,0.021-0.014,0.041-0.026,0.058c-0.012,0.017-0.028,0.032-0.047,0.044
			s-0.039,0.018-0.06,0.022c-0.021,0.003-0.043,0.002-0.064-0.003c-0.791-0.234-1.612-0.351-2.438-0.348
			c-1.834,0-2.196,0.348-2.196,3.226 M94.747,60.135l-1.887,0.751c-0.039,0.024-0.087,0.031-0.132,0.02
			c-0.045-0.011-0.083-0.039-0.107-0.079l-0.541-1.262c-0.174-0.331-0.259-0.701-0.247-1.074V46.512
			c0.002-0.045,0.021-0.088,0.053-0.121c0.032-0.032,0.075-0.051,0.121-0.053h1.999c0.046,0,0.09,0.018,0.123,0.051
			c0.033,0.033,0.051,0.077,0.051,0.123v12.045l0.622,1.345c0.013,0.02,0.022,0.042,0.026,0.065c0.004,0.023,0.002,0.047-0.004,0.07
			s-0.018,0.044-0.033,0.062c-0.016,0.018-0.035,0.032-0.056,0.042 M91.836,36.779c0-2.396-0.235-2.676-1.712-2.676
			c-0.754-0.007-1.496,0.186-2.15,0.561c0.117,0.652,0.167,1.314,0.15,1.976v5.526c0,0.046-0.018,0.09-0.051,0.123
			s-0.077,0.051-0.123,0.051h-1.992c-0.024,0.001-0.047-0.002-0.069-0.011c-0.022-0.008-0.042-0.021-0.059-0.037
			c-0.017-0.016-0.031-0.036-0.04-0.058c-0.009-0.022-0.014-0.045-0.014-0.069v-5.387c0-2.396-0.174-2.676-1.612-2.676
			c-0.724-0.024-1.441,0.141-2.081,0.48v7.584c0,0.046-0.018,0.09-0.051,0.123s-0.077,0.051-0.123,0.051h-2.002
			c-0.046,0-0.09-0.018-0.123-0.051c-0.033-0.033-0.051-0.077-0.051-0.123v-9.718c0-0.046,0.018-0.09,0.051-0.123
			c0.033-0.033,0.077-0.051,0.123-0.051h2.002c0.046,0,0.09,0.018,0.123,0.051s0.051,0.077,0.051,0.123v0.937
			c0.54-0.631,1.619-1.401,2.819-1.401c1.372,0,2.33,0.49,2.826,1.738c0.789-0.926,2.002-1.738,3.218-1.738
			c2.149,0,3.247,1.043,3.247,4.661v5.521c0,0.046-0.018,0.09-0.051,0.123c-0.033,0.033-0.077,0.051-0.123,0.051h-1.995
			c-0.024,0.002-0.048-0.002-0.07-0.01c-0.023-0.008-0.043-0.021-0.061-0.037c-0.017-0.016-0.031-0.036-0.041-0.058
			c-0.01-0.022-0.014-0.046-0.014-0.069V36.779z M73.76,24.155h-1.987c-0.049,0-0.096-0.02-0.131-0.054
			c-0.035-0.034-0.055-0.081-0.056-0.13v-5.28c0-2.504-0.216-2.761-2.175-2.761c-0.726-0.021-1.445,0.144-2.09,0.478v7.563
			c0.001,0.024-0.002,0.047-0.01,0.07c-0.008,0.022-0.021,0.043-0.037,0.06c-0.016,0.017-0.036,0.031-0.058,0.04
			c-0.022,0.009-0.045,0.014-0.069,0.014h-2.004c-0.024,0-0.047-0.005-0.069-0.014c-0.022-0.009-0.042-0.023-0.058-0.04
			c-0.016-0.017-0.029-0.038-0.037-0.06c-0.008-0.022-0.012-0.046-0.01-0.07V14.27c0-0.046,0.018-0.09,0.051-0.123
			c0.033-0.033,0.077-0.051,0.123-0.051h1.992c0.046,0,0.09,0.018,0.123,0.051c0.033,0.033,0.051,0.077,0.051,0.123v0.931
			c0.388-0.437,0.863-0.789,1.396-1.032c0.532-0.243,1.11-0.372,1.695-0.378c2.535,0,3.533,1.043,3.533,4.765v5.414
			c0.001,0.024-0.002,0.047-0.01,0.07s-0.021,0.043-0.037,0.06c-0.016,0.017-0.036,0.031-0.058,0.04
			C73.808,24.15,73.784,24.155,73.76,24.155z M41.981,19.115c0,2.965,0.359,3.243,2.189,3.243c0.827-0.006,1.648-0.133,2.438-0.377
			c0.041-0.009,0.084-0.002,0.12,0.02c0.036,0.022,0.062,0.056,0.073,0.097l0.303,1.76c0.04,0.116,0,0.24-0.097,0.259
			c-1.026,0.218-2.072,0.326-3.12,0.323c-3.402,0-4.459-1.248-4.459-5.341c0-4.093,1.06-5.308,4.459-5.308
			c1.053,0.002,2.103,0.109,3.134,0.318c0.024,0.009,0.046,0.024,0.063,0.042c0.018,0.018,0.032,0.04,0.041,0.064
			c0.009,0.024,0.013,0.049,0.012,0.075c-0.001,0.026-0.008,0.051-0.019,0.073l-0.303,1.759c-0.005,0.021-0.013,0.04-0.025,0.058
			c-0.012,0.017-0.028,0.032-0.046,0.043c-0.018,0.011-0.038,0.019-0.059,0.022c-0.021,0.003-0.042,0.002-0.063-0.003
			c-0.791-0.234-1.612-0.351-2.438-0.347c-1.83,0-2.189,0.347-2.189,3.225 M79.015,50.856c0,0.021-0.024,0.035-0.024,0.057
			l-3.232,9.433c-0.007,0.049-0.031,0.093-0.068,0.125c-0.037,0.032-0.085,0.049-0.134,0.049h-2.995
			c-0.048-0.002-0.093-0.02-0.128-0.052c-0.035-0.032-0.058-0.075-0.065-0.122l-3.22-9.411c-0.008-0.019-0.011-0.039-0.01-0.059
			c0.003-0.037,0.017-0.072,0.041-0.1c0.024-0.028,0.057-0.048,0.093-0.056l2.076-0.494h0.049c0.04,0.004,0.077,0.019,0.108,0.044
			c0.031,0.025,0.054,0.059,0.066,0.097l2.281,7.369l0.237,1.13l0.258-1.13l2.234-7.369c0.019-0.039,0.047-0.072,0.082-0.097
			c0.035-0.025,0.076-0.04,0.118-0.044h0.036l2.055,0.494c0.085,0.019,0.146,0.082,0.146,0.136 M61.352,30.697v4.074h4.91
			c0.047,0,0.092,0.018,0.126,0.05c0.034,0.032,0.054,0.076,0.056,0.123v1.759c-0.001,0.048-0.021,0.094-0.054,0.128
			c-0.034,0.034-0.08,0.054-0.128,0.054h-4.91v5.281c0,0.046-0.018,0.09-0.051,0.123c-0.033,0.033-0.077,0.051-0.123,0.051h-2.143
			c-0.046,0-0.09-0.018-0.123-0.051c-0.033-0.033-0.051-0.077-0.051-0.123v-13.43c0-0.046,0.018-0.09,0.051-0.123
			c0.033-0.033,0.077-0.051,0.123-0.051h8.532c0.046,0,0.09,0.018,0.123,0.051c0.033,0.033,0.051,0.077,0.051,0.123v1.787
			c0,0.046-0.018,0.09-0.051,0.123c-0.033,0.033-0.077,0.051-0.123,0.051H61.352z M51.079,14.093c0.046,0,0.09,0.018,0.123,0.051
			c0.033,0.032,0.051,0.077,0.051,0.123v9.704c0.001,0.024-0.002,0.047-0.01,0.07s-0.021,0.043-0.037,0.06
			c-0.016,0.017-0.036,0.031-0.058,0.04c-0.022,0.009-0.045,0.014-0.069,0.014h-1.994c-0.025,0.002-0.049-0.002-0.072-0.011
			c-0.023-0.009-0.044-0.022-0.062-0.04c-0.017-0.017-0.031-0.038-0.04-0.061c-0.009-0.023-0.012-0.048-0.011-0.072V14.27
			c0-0.024,0.005-0.047,0.014-0.069c0.009-0.022,0.023-0.041,0.04-0.058s0.038-0.029,0.06-0.037c0.022-0.008,0.046-0.012,0.07-0.01
			L51.079,14.093z M48.815,11.138c0-1.032,0.174-1.149,1.259-1.149s1.276,0.116,1.276,1.149c0,1.14-0.195,1.283-1.276,1.283
			C48.993,12.421,48.815,12.278,48.815,11.138z M86.753,58.253c-0.644,0.349-1.367,0.528-2.1,0.521c-1.67,0-1.994-0.282-1.994-1.463
			c0-1.227,0.303-1.524,1.994-1.524c0.734,0,1.456,0.183,2.1,0.534V58.253z M89.104,58.75v-4.433c0-3.264-1.699-4.152-4.588-4.152
			c-1.178-0.006-2.354,0.109-3.509,0.344c-0.101,0.024-0.134,0.142-0.101,0.261l0.298,1.599c0.013,0.041,0.04,0.076,0.076,0.098
			c0.037,0.022,0.08,0.03,0.122,0.022c0.954-0.248,1.936-0.373,2.922-0.372c2.048,0,2.429,0.395,2.429,2.268v0.911
			c-0.446-0.594-1.699-1.305-2.878-1.305c-2.709,0-3.728,0.848-3.728,3.361c0,2.553,1.019,3.462,3.728,3.462
			c1.179,0,2.459-0.808,2.901-1.408l0.674,1.429c0.024,0.039,0.062,0.067,0.106,0.078c0.044,0.011,0.091,0.004,0.131-0.019
			l1.86-0.751c0.021-0.01,0.04-0.024,0.056-0.042c0.016-0.018,0.028-0.038,0.035-0.06c0.007-0.022,0.01-0.046,0.008-0.069
			s-0.008-0.046-0.019-0.067L89.104,58.75z"/>
	</g>
</g>
</svg>
