<?xml version="1.0" encoding="utf-8"?>
<!-- Generator: Adobe Illustrator 26.3.1, SVG Export Plug-In . SVG Version: 6.00 Build 0)  -->
<svg version="1.1" id="Layer_1" xmlns="http://www.w3.org/2000/svg" xmlns:xlink="http://www.w3.org/1999/xlink" x="0px" y="0px"
	 viewBox="0 0 89 91" enable-background="new 0 0 89 91" xml:space="preserve">
<path fill="#FFFFFF" fill-opacity="0.3" d="M37.84,7.15c1.531-0.226,3.057-0.529,4.597-0.665
	C53.452,5.51,64.321,11.32,69.393,21.056c3.444,6.615,4.844,13.65,3.445,21.094c-0.699,3.717-2.435,7.039-4.138,10.372
	c-0.741,1.454-1.403,2.947-1.982,4.471c-0.448,1.182-0.556,2.464-0.311,3.701c0.263,0.043,0.504,0.081,0.743,0.124
	c2.28,0.403,3.853,1.7,4.554,3.872c0.701,2.172,0.191,4.173-1.462,5.783c-0.485,0.472-0.556,0.834-0.329,1.419
	c0.337,0.867,0.592,1.767,0.876,2.635c1.616-0.198,2.363,0.129,2.65,1.119c0.288,0.99-0.135,1.656-1.449,2.358
	c0.219,0.877,0.525,1.751,0.644,2.638c0.162,1.176-0.092,2.372-0.72,3.383s-1.589,1.774-2.718,2.156
	c-4.525,1.522-9.062,3.01-13.612,4.463c-1.288,0.401-2.68,0.293-3.887-0.302s-2.136-1.632-2.594-2.894
	c-0.212-0.567-0.377-1.149-0.561-1.711c-1.666,0.153-2.405-0.182-2.686-1.184c-0.269-0.961,0.169-1.629,1.522-2.322
	c-0.352-1.075-0.678-2.18-1.099-3.25c-0.075-0.192-0.534-0.288-0.831-0.331c-4.016-0.571-6.185-4.933-4.182-8.432
	c0.248-0.464,0.576-0.881,0.968-1.233c0.526-0.437,0.417-0.759,0.086-1.242c-0.965-1.407-2.275-2.401-3.751-3.196
	c-2.343-1.254-4.738-2.413-7.066-3.693c-5.377-2.957-9.157-7.376-11.7-12.909c-1.922-4.186-3.226-8.511-3.262-13.164
	c-0.042-3.6,0.615-7.175,1.935-10.53c0.479-1.216,1.355-1.703,2.376-1.326c1.021,0.377,1.364,1.362,0.905,2.553
	c-2.708,7.027-1.99,13.84,1.038,20.59c2.7,6.023,7.035,10.346,13.003,13.117c1.229,0.571,2.432,1.203,3.636,1.827
	c2.722,1.413,5.122,3.181,6.549,6.044l16.908-5.543c-0.042-0.665-0.113-1.347-0.11-2.027c0.013-2.378,0.807-4.551,1.824-6.664
	c1.269-2.643,2.674-5.237,3.766-7.951c1.936-4.811,1.817-9.768,0.659-14.743c-0.997-4.285-2.604-8.296-5.58-11.598
	c-6.538-7.254-14.642-9.974-24.29-8.005c-2.89,0.598-5.507,1.842-8.008,3.377c-1.171,0.716-2.456,0.159-2.698-1.114
	c-0.151-0.798,0.165-1.426,0.858-1.82c1.274-0.727,2.57-1.414,3.858-2.12c0.238-0.131,0.474-0.267,0.71-0.407L37.84,7.15z
	 M55.606,67.63l-5.221,1.712c-1.556,0.51-3.115,1.011-4.668,1.53c-1.314,0.443-1.944,1.573-1.577,2.772
	c0.367,1.2,1.506,1.763,2.863,1.399c0.268-0.072,0.529-0.165,0.796-0.252l12.736-4.176c2.005-0.657,4.021-1.28,6.004-1.991
	c0.591-0.213,1.121-0.567,1.543-1.031c0.585-0.669,0.486-1.733-0.052-2.474c-0.538-0.741-1.525-1.056-2.533-0.729
	C62.197,65.462,58.902,66.551,55.606,67.63z M49.731,77.908l1.057,3.225l16.638-5.455l-1.057-3.225L49.731,77.908z M51.866,84.586
	c0.194,0.59,0.335,1.123,0.542,1.628c0.389,0.944,1.25,1.385,2.225,1.071c4.457-1.44,8.907-2.899,13.35-4.377
	c0.91-0.299,1.35-1.116,1.154-2.037c-0.124-0.583-0.362-1.142-0.564-1.759L51.866,84.586z"/>
<path fill="#FFFFFF" fill-opacity="0.3" d="M5.576,46.691c0.14-1.095,0.814-1.665,1.838-1.964c1.024-0.299,2.046-0.681,3.078-0.994
	c1.164-0.35,2.092,0.087,2.406,1.092c0.314,1.005-0.167,1.827-1.291,2.224c-1.017,0.36-2.064,0.637-3.068,1.027
	c-1.003,0.39-1.878,0.322-2.655-0.441L5.576,46.691z"/>
<path fill="#FFFFFF" fill-opacity="0.3" d="M45.43,49.49c-2.707-1.859-3-4.6-2.801-7.472c0.184-2.723,1.298-5.182,2.447-7.62
	c0.313-0.653,0.648-1.286,0.944-1.942c0.523-1.159,0.295-2.314-0.593-3.101c-0.43-0.378-0.97-0.607-1.542-0.654
	c-0.572-0.047-1.144,0.09-1.632,0.393c-0.487,0.305-0.86,0.761-1.061,1.298c-0.201,0.536-0.22,1.124-0.053,1.671
	c0.435,1.483,0.373,2.905-0.403,4.246c-1.123,1.931-2.843,2.874-5.059,2.678c-2.171-0.192-3.731-1.361-4.472-3.429
	c-2.343-6.535,0.987-13.657,7.668-16.473c6.051-2.552,13.555,0.265,16.514,6.211c1.965,3.948,1.918,7.913,0.051,11.895
	c-0.703,1.503-1.428,3.001-2.022,4.549c-0.23,0.6-0.134,1.338-0.151,2.011c-0.029,1.058-0.026,2.118-0.036,3.414
	c0.683,0.454,1.25,1.061,1.654,1.774c0.404,0.712,0.635,1.51,0.674,2.328c0.082,1.227-0.282,2.444-1.024,3.428
	c-0.733,0.987-1.789,1.689-2.986,1.983c-1.196,0.294-2.457,0.161-3.563-0.374C46.094,55.388,44.229,52.973,45.43,49.49z
	 M52.993,28.764C50.716,21.819,42.634,19.558,37.401,24c-2.927,2.486-4.14,6.611-2.984,10.139c0.35,1.069,1.266,1.607,2.232,1.312
	c0.936-0.286,1.407-1.215,1.142-2.259c-0.026-0.107-0.069-0.21-0.091-0.32c-0.94-3.693,1.687-7.371,5.465-7.655
	c1.069-0.091,2.142,0.099,3.113,0.55s1.805,1.149,2.419,2.023c0.614,0.874,0.987,1.894,1.082,2.958
	c0.095,1.064-0.093,2.135-0.543,3.105c-0.737,1.64-1.545,3.249-2.216,4.922c-0.829,2.051-1.292,4.171-0.659,6.387
	c0.319,1.119,1.154,1.692,2.14,1.454c1.028-0.25,1.56-1.092,1.276-2.233c-0.31-1.213-0.216-2.495,0.265-3.653
	c0.665-1.637,1.37-3.264,2.141-4.854C53.371,33.421,53.649,30.921,52.993,28.764z M49.784,49.933
	c-0.22,0.066-0.425,0.175-0.602,0.321c-0.177,0.146-0.324,0.325-0.431,0.527s-0.173,0.424-0.194,0.652
	c-0.02,0.228,0.005,0.457,0.075,0.675c0.063,0.223,0.171,0.432,0.317,0.613c0.146,0.181,0.327,0.331,0.532,0.441
	c0.205,0.11,0.431,0.178,0.663,0.2c0.232,0.022,0.467-0.003,0.689-0.073c0.223-0.07,0.429-0.184,0.607-0.335
	c0.178-0.151,0.324-0.336,0.429-0.543c0.105-0.208,0.168-0.434,0.183-0.666c0.016-0.232-0.015-0.465-0.091-0.684
	c-0.067-0.217-0.177-0.419-0.323-0.594c-0.146-0.175-0.326-0.318-0.528-0.423c-0.202-0.105-0.424-0.168-0.652-0.187
	C50.231,49.837,50.002,49.863,49.784,49.933z"/>
<path fill="#FFFFFF" fill-opacity="0.3" d="M16.524,68.079c-0.949,0.32-1.752,0.066-2.18-0.563
	c-0.232-0.316-0.347-0.702-0.325-1.094c0.022-0.391,0.179-0.764,0.444-1.054c0.749-0.887,1.538-1.737,2.309-2.6
	c0.979-1.09,1.953-2.186,2.945-3.266c0.821-0.892,1.863-0.992,2.633-0.279c0.769,0.713,0.776,1.702-0.002,2.577
	c-1.72,1.945-3.455,3.879-5.205,5.802C16.955,67.784,16.747,67.944,16.524,68.079z"/>
<path fill="#FFFFFF" fill-opacity="0.3" d="M88.73,42.457c0.291,1.364-0.66,2.644-1.934,2.416c-2.776-0.499-5.533-1.091-8.29-1.71
	c-0.906-0.203-1.354-1.129-1.154-2.015c0.2-0.885,0.989-1.511,1.914-1.327c2.742,0.526,5.479,1.09,8.199,1.717
	C87.936,41.637,88.311,42.138,88.73,42.457z"/>
<path fill="#FFFFFF" fill-opacity="0.3" d="M75.317,2.073c-0.087,0.27-0.149,0.923-0.494,1.338
	c-1.742,2.038-3.549,4.022-5.364,5.998c-0.148,0.175-0.33,0.319-0.535,0.423c-0.205,0.104-0.429,0.165-0.658,0.181
	c-0.229,0.016-0.459-0.015-0.675-0.09c-0.217-0.075-0.415-0.193-0.585-0.347c-0.762-0.675-0.842-1.69-0.12-2.509
	c1.756-1.99,3.523-3.971,5.324-5.92C73.203,0.076,74.791,0.415,75.317,2.073z"/>
<path fill="#FFFFFF" fill-opacity="0.3" d="M2.005,23.89c0.319-0.009,0.639,0.01,0.955,0.056c2.467,0.494,4.931,1.001,7.393,1.52
	c1.241,0.264,1.854,1.112,1.615,2.168c-0.227,1.01-1.129,1.508-2.332,1.263c-2.492-0.508-4.983-1.025-7.472-1.552
	c-0.977-0.204-1.508-0.813-1.552-1.687C0.575,24.911,1.081,24.194,2.005,23.89z"/>
<path fill="#FFFFFF" fill-opacity="0.3" d="M80.538,24.442c-0.657,0.215-1.304,0.463-1.971,0.636
	c-0.982,0.257-1.818-0.187-2.112-1.085c-0.295-0.898,0.045-1.812,0.983-2.17c1.341-0.513,2.711-0.962,4.094-1.342
	c0.215-0.061,0.439-0.079,0.661-0.052c0.221,0.026,0.435,0.096,0.629,0.206c0.194,0.11,0.364,0.257,0.499,0.433
	c0.136,0.176,0.235,0.377,0.292,0.592c0.262,0.886-0.169,1.756-1.102,2.125C81.865,24.042,81.195,24.226,80.538,24.442z"/>
<path fill="#FFFFFF" fill-opacity="0.3" d="M25.93,17.226c0.149,0.433,0.118,0.908-0.084,1.32c-0.203,0.412-0.561,0.727-0.996,0.877
	c-0.218,0.072-0.448,0.101-0.677,0.084c-0.229-0.016-0.452-0.077-0.657-0.18c-0.205-0.102-0.387-0.244-0.537-0.417
	c-0.15-0.173-0.264-0.373-0.335-0.59s-0.1-0.446-0.083-0.674c0.017-0.228,0.079-0.45,0.182-0.655s0.246-0.386,0.42-0.536
	c0.174-0.15,0.375-0.264,0.593-0.336c0.216-0.073,0.444-0.102,0.671-0.085c0.227,0.016,0.448,0.078,0.651,0.181
	c0.202,0.103,0.382,0.245,0.528,0.419C25.753,16.808,25.863,17.009,25.93,17.226z"/>
</svg>
