<?xml version="1.0" encoding="utf-8"?>
<!-- Generator: Adobe Illustrator 26.3.1, SVG Export Plug-In . SVG Version: 6.00 Build 0)  -->
<svg version="1.1" id="Layer_1" xmlns="http://www.w3.org/2000/svg" xmlns:xlink="http://www.w3.org/1999/xlink" x="0px" y="0px"
	 viewBox="0 0 341 525" enable-background="new 0 0 341 525" xml:space="preserve">
<path fill="#184655" d="M82.109,330.559l-8.359-1.583L37.408,520.603l8.359,1.583L82.109,330.559z"/>
<path fill="#184655" d="M323.411,523.117h10.081L295.994,328.97l-8.365,1.607L323.411,523.117z"/>
<path fill="#184655" d="M139.139,523.117h10.045L111.686,328.97l-8.365,1.607L139.139,523.117z"/>
<path fill="#184655" d="M231.722,523.117l-8.186,0.107l35.961-193.362l8.364,1.572L231.722,523.117z"/>
<path fill="#FAE0B2" d="M195.189,67.522c33.137,3.536,76.033,7.287,119.071,80.303c47.042,79.802,22.27,199.005-14.87,232.12
	c-37.141,33.114-158.428,74.015-260.412,12.788c0,0-61.555-37.115-29.955-98.699c48.615-94.77,41.752-114.524,63.486-151.675
	C94.242,105.209,124.84,60.021,195.189,67.522z"/>
<path fill="#F7CC7F" d="M314.296,147.824c-29.383-49.831-58.695-67.407-84.862-74.658c10.117,10.466,20.411,23.934,30.671,41.366
	c47.042,79.802,22.27,199.006-14.871,232.12c-32.922,29.363-132.047,64.87-225.202,29.792c9.58,10.573,18.981,16.253,18.981,16.253
	c101.984,61.227,223.271,20.326,260.412-12.788C336.566,346.83,361.338,227.627,314.296,147.824z"/>
<path fill="#F79C8D" d="M88.808,188.833l-8.543,25.541l25.987-10.216L88.808,188.833z"/>
<path fill="#042A44" d="M115.546,112.817c-1.716,0.072-6.47,1.643-13.405,14.718c-8.865,16.682-21.805,67.014-21.805,67.014
	l38.642,14.325l4.968-10.502l8.186-80.911C132.132,117.461,116.047,112.817,115.546,112.817z"/>
<path fill="#07345A" d="M166.628,105.565c-11.045,0-38.392,3.216-51.082,7.252c0,0-9.329,79.766,8.401,140.422
	c3.968,13.574-3.288,56.262-3.288,56.262L235.154,308c0,0-13.548-103.2-8.436-119.846c5.112-16.682,5.219-74.766,5.219-74.766
	s-0.786-0.107-25.737-4.429C194.582,106.958,178.425,105.565,166.628,105.565z"/>
<path fill="#F7A491" d="M179.961,457.568c0,0-2.538,29.113-7.185,37.187c-4.647,8.073,0.251,21.754,0.501,23.648
	c0.25,1.893,9.794,4.572,24.987,2.965c15.192-1.608,14.941-5.109,13.726-10.753c-1.215-5.644-9.33-12.895-9.794-18.289
	c-0.501-5.359,4.647-24.72,4.647-24.72L179.961,457.568z"/>
<path fill="#327F6B" d="M133.598,285.46c0,0-79.035-4.358-96.658,6.287c-17.659,10.645,3.181,32.507,3.181,32.507
	s64.343,27.864,172.047,34.044c25.523,1.464,27.703-66.229,22.949-71.838C230.328,280.852,133.598,285.46,133.598,285.46z"/>
<path fill="#355389" d="M200.158,523.617c15.657-1.643,13.727-9.323,12.44-15.11c-0.787-3.644-5.291-7.93-7.972-12.003
	c-1.394,1.108-3.681,3.072-10.473,5.073c-7.042,2.072-16.729-2.036-22.878-4.608c-2.18,8.144-2.288,18.54-2.109,20.111
	C169.452,519.009,184.501,525.261,200.158,523.617z"/>
<path fill="#3C8F7C" d="M191.543,341.757c-3.146,23.791-18.803,142.245-18.803,142.245l36.283,4.465
	c0,0,44.611-154.604,42.323-178.252c-2.287-23.648-18.981-25.648-18.981-25.648S199.872,278.78,191.543,341.757z"/>
<path fill="#07345A" d="M156.798,4.902c0,0,12.046-12.681,21.734,2.751c0,0,7.471-4.179,12.689,3.286
	c0,0,13.477-4.072,16.766,16.111c0,0,6.934-1.322,7.864,6.93c0.929,8.252-3.289,13.753-3.289,13.753s3.896,2.929,2.145,10.502
	c-1.502,6.43-6.828,7.43-6.828,7.43s-1.43,10.86-6.148,14.146c-4.719,3.287-11.117,1.715-11.117,1.715s-1.716,5.894-7.221,5.358
	c-5.505-0.536-12.297-5.751-18.481-3.394c-6.148,2.358-22.127-0.143-22.127-0.143s-17.944-8.002-12.583-26.327
	c0,0-9.437-8.502-1.179-18.718c0,0-6.041-15.968,5.898-25.398C146.825,3.473,156.798,4.902,156.798,4.902z"/>
<path fill="#F7A491" d="M158.799,91.134l-2.18,16.182c0,0-4.898,23.291,1.394,27.792c6.291,4.501,26.738-28.471,26.738-28.471
	l-2.145-40.973L158.799,91.134z"/>
<path fill="#F47458" d="M183.322,78.917c-5.184,13.967-17.552,22.577-26.345,25.899l1.858-13.718l23.807-25.47L183.322,78.917z"/>
<path fill="#F7A491" d="M168.094,22.584c-12.762-4.394-26.345,4.072-28.311,17.218c-0.858,5.716-1.609,12.896-1.752,20.755
	c-0.357,18.897,9.437,37.258,18.016,37.258c8.579,0,32.315-12.217,33.173-39.044C189.756,42.231,181.463,27.192,168.094,22.584z"/>
<path fill="#F7A491" d="M182.893,60.914c0,4.18,2.752,7.537,6.184,7.537c3.431,0,6.184-3.394,6.184-7.537
	c0-4.18-2.753-7.537-6.184-7.537C185.645,53.376,182.893,56.77,182.893,60.914z"/>
<path fill="#07345A" d="M130.882,13.189c-8.865,7.002-11.975,17.682-6.935,23.827s16.3,5.43,25.165-1.607
	c8.865-7.002,11.975-17.683,6.935-23.827C151.043,5.473,139.747,6.188,130.882,13.189z"/>
<path fill="#F7A491" d="M233.188,122.248c-10.689-4.001-15.943,92.055-17.373,131.599c-18.946,1.821-52.011,0-60.233-0.608
	c-3.86-0.285-12.797-3.536-16.622-4.036c-3.932-0.5-7.507-0.786-9.473-0.429c-0.714,0.107-20.482,8.18-22.162,9.931
	c-2.109,2.179-7.757,7.716-6.792,10.109c0.965,2.393,10.903-6.644,10.903-6.644l4.861-2.715
	c-6.041,5.894-17.587,13.646-15.907,16.468c1.609,2.75,12.011-5.108,19.446-10.467c-6.363,5.716-14.263,15.968-12.44,17.575
	c1.645,1.429,10.617-10.43,20.233-13.824c3.574-1.25,7.113,2.251,9.901,2.679c2.074,0.322,5.219,0.965,7.257,0.393l10.402-2.929
	c3.539,0.321,3.646,2.393,7.221,3.179c4.146,0.893,10.974,1.822,16.264,3.108c30.456,7.43,40.644,10.859,49.974,10.859
	C256.852,286.318,258.46,131.678,233.188,122.248z"/>
<path fill="#07345A" d="M253.491,212.41c2.002-40.508,1.716-90.412-21.09-98.914c-9.008-3.358-24.844,16.861-21.984,99.736
	C222.571,214.232,240.444,215.054,253.491,212.41z"/>
<path fill="#F79C8D" d="M125.984,195.013h2.324l34.924,85.483l-2.431-0.357L125.984,195.013z"/>
<path fill="#F7A491" d="M73.902,482.466c0,0,3.181,10.109-2.502,16.789c-5.684,6.68-29.205,13.253-32.315,16.861
	c-3.074,3.608-2.86,6.716-2.86,6.716l66.095-1.822l-0.715-19.897l-3.038-14.289L73.902,482.466z"/>
<path fill="#355389" d="M67.289,502.613c0,0,16.979,6.858,25.201,2.786c8.186-4.036,7.971-5.18,10.331-3.679
	c2.359,1.5,3.217,20.147,3.217,20.147l-74.317,2.179c-5.183-0.107-7.793-3.929-3.575-7.144c2.895-2.215,6.22-3.715,8.114-4.787
	C42.052,508.757,67.289,502.613,67.289,502.613z"/>
<path fill="#3C8F7C" d="M76.404,304.107c-5.112-10.717-16.729-24.648-37.176-16.253c-19.482,8.001-24.736,27.684-18.588,47.831
	s46.649,138.6,48.043,154.889l32.351,0.215c0,0-5.863-93.806-7.328-116.489C92.347,352.546,85.234,322.647,76.404,304.107z"/>
<path fill="#F47458" d="M23.929,195.013h108.097c2.859,0,5.433,1.714,6.505,4.358l33.28,81.125H231.4
	c1.68,0,3.003,1.357,3.003,3.001c0,1.678-1.358,3-3.003,3H61.82c-4.647,0-8.901-2.75-10.795-7.001L17.53,204.908
	C15.385,200.3,18.817,195.013,23.929,195.013z"/>
<path fill="#FFFFFF" d="M82.123,242.237c0.715,3.644,3.896,6.073,7.114,5.43c3.182-0.643,5.183-4.108,4.468-7.752
	c-0.715-3.644-3.896-6.073-7.114-5.43C83.375,235.128,81.373,238.593,82.123,242.237z"/>
<path fill="#FFFFFF" d="M148.29,76.881l16.622-0.286c0,0-0.286,6.323-7.578,6.644C148.397,83.668,148.29,76.881,148.29,76.881z"/>
</svg>
