<?xml version="1.0" encoding="utf-8"?>
<!-- Generator: Adobe Illustrator 26.3.1, SVG Export Plug-In . SVG Version: 6.00 Build 0)  -->
<svg version="1.1" id="Layer_1" xmlns="http://www.w3.org/2000/svg" xmlns:xlink="http://www.w3.org/1999/xlink" x="0px" y="0px"
	 viewBox="0 0 155 146" enable-background="new 0 0 155 146" xml:space="preserve">
<path fill="#FFFFFF" fill-opacity="0.2" d="M21.979,146c-2.325-1.003-4.905-1.64-6.929-3.072
	c-5.811-4.116-7.624-11.849-4.623-18.251c1.46-3.141,3.966-5.674,7.085-7.161c3.12-1.487,6.658-1.837,10.007-0.989
	c0.996,0.246,1.609,0.123,2.344-0.587c6.145-5.918,12.318-11.806,18.519-17.661c0.792-0.744,0.864-1.262,0.377-2.239
	c-2.445-4.955-3.457-10.2-2.665-15.706c0.195-1.34-0.217-1.892-1.436-2.416c-7.309-3.084-14.593-6.231-21.85-9.44
	c-0.943-0.42-1.625-0.413-2.542,0.183c-2.381,1.56-5.205,2.297-8.042,2.097c-2.837-0.2-5.53-1.325-7.671-3.204
	c-2.13-1.852-3.613-4.34-4.232-7.099s-0.342-5.645,0.791-8.235c1.133-2.59,3.062-4.748,5.504-6.158
	c2.443-1.41,5.271-1.999,8.071-1.679c2.772,0.307,5.374,1.496,7.425,3.393s3.444,4.402,3.976,7.15
	c0.226,1.17,0.726,1.766,1.798,2.208c7.347,3.131,14.68,6.305,21.997,9.522c0.971,0.426,1.515,0.363,2.215-0.524
	c3.422-4.347,8.113-7.512,13.415-9.052c1.021-0.315,1.257-0.76,1.257-1.747c-0.031-8.6-0.031-17.2,0-25.802
	c0-1.091-0.5-1.536-1.298-2.05c-2.729-1.753-4.809-4.356-5.924-7.409c-1.114-3.053-1.2-6.389-0.245-9.496
	c0.935-3.072,2.831-5.759,5.408-7.664C67.29,1.006,70.41-0.014,73.61,0c3.2,0.015,6.31,1.064,8.87,2.992
	c2.559,1.928,4.431,4.633,5.339,7.713c0.915,3.061,0.82,6.338-0.271,9.34s-3.12,5.571-5.785,7.322
	c-1.047,0.678-1.446,1.366-1.439,2.618c0.057,8.389,0.057,16.78,0,25.171c0,1.097,0.258,1.608,1.389,1.993
	c2.028,0.673,3.988,1.536,5.854,2.58c1.848,1.053,3.504,2.441,5.443,3.823c2.354-1.536,4.906-3.154,7.372-4.882
	c0.314-0.215,0.295-1.12,0.182-1.649c-0.863-3.889-0.549-7.948,0.902-11.657c1.45-3.709,3.972-6.898,7.241-9.159
	c3.395-2.417,7.489-3.646,11.649-3.498c0.914,0.031,1.373-0.221,1.725-1.104c1.304-3.255,2.744-6.453,4.023-9.717
	c0.237-0.699,0.214-1.461-0.063-2.145c-1.839-4.166-1.066-8.913,2.08-12.079c1.527-1.528,3.481-2.552,5.603-2.937
	c2.121-0.385,4.309-0.112,6.273,0.783c1.997,0.895,3.663,2.397,4.764,4.294c1.101,1.897,1.582,4.093,1.373,6.278
	c-0.434,4.349-2.828,7.298-6.832,9.023c-0.677,0.3-1.232,0.825-1.571,1.486c-1.427,3.154-2.696,6.358-4.085,9.515
	c-0.415,0.946-0.352,1.52,0.414,2.306c5.468,5.595,7.3,12.3,5.182,19.803c-2.089,7.409-7.127,12.067-14.565,13.927
	c-5.374,1.34-10.465,0.388-15.188-2.523c-0.484-0.296-0.958-0.631-1.493-0.962c-2.551,1.665-5.109,3.29-7.601,5.008
	c-0.315,0.214-0.472,0.946-0.403,1.384c0.387,2.476,0.824,4.945,1.342,7.396c0.101,0.467,0.582,1.104,1,1.208
	c8.497,2.157,17.008,4.26,25.532,6.308c0.538,0.129,1.383-0.205,1.817-0.612c4.682-4.384,11.338-5.44,17.007-2.621
	c5.606,2.788,8.947,8.907,8.208,15.019c-0.352,3.095-1.656,6.004-3.732,8.322c-2.075,2.317-4.818,3.928-7.848,4.609
	c-7.366,1.725-14.889-2.539-17.359-9.932c-0.314-0.946-0.798-1.318-1.684-1.533c-8.316-2.02-16.625-4.066-24.93-6.137
	c-0.867-0.218-1.361-0.202-1.901,0.675c-8.296,13.442-24.197,17.557-37.924,9.868c-0.22-0.123-0.453-0.227-0.745-0.372
	l-16.269,15.508c-0.25,0.268-0.517,0.521-0.798,0.757c-2.347,1.778-3.388,3.69-3.007,7.052c0.798,7.077-4.695,13.628-11.753,15.094
	c-0.405,0.085-0.798,0.215-1.197,0.316L21.979,146z M80.358,61.419c0,1.12,0.041,2.116,0,3.107
	c-0.084,1.748-0.835,3.396-2.097,4.604c-1.262,1.207-2.939,1.881-4.683,1.881c-1.744,0-3.421-0.674-4.683-1.881
	c-1.262-1.207-2.013-2.856-2.097-4.604c-0.047-1.022,0-2.05,0-3.122C52.726,65.242,46.202,82.31,52.83,93.98
	c0.66-0.615,1.295-1.227,1.945-1.817c2.872-2.592,6.973-2.498,9.597,0.214c2.624,2.712,2.549,6.847-0.113,9.638
	c-0.647,0.675-1.332,1.312-2.011,1.977c9.949,6.333,25.429,2.662,31.142-8.316c-0.874-0.227-1.735-0.429-2.583-0.672
	c-3.689-1.056-5.773-4.614-4.871-8.295c0.902-3.681,4.437-5.797,8.193-4.986c0.88,0.189,1.763,0.35,2.696,0.536
	C96.108,70.527,87.24,62.999,80.358,61.419z M119.558,37.238c-6.091-0.713-13.039,4.98-14.66,12.013
	c-0.832,3.745-0.263,7.666,1.598,11.017c1.861,3.351,4.884,5.899,8.495,7.159c3.611,1.26,7.557,1.144,11.089-0.326
	c3.531-1.47,6.4-4.192,8.062-7.647c3.205-6.607,0.801-14.662-2.941-17.346c-2.062,4.226-4.934,5.794-8.347,4.551
	C119.265,45.347,118.269,42.496,119.558,37.238z M73.598,25.477c2.073-0.007,4.098-0.63,5.819-1.79
	c1.721-1.16,3.061-2.806,3.852-4.729c0.791-1.923,0.996-4.039,0.591-6.079c-0.405-2.04-1.404-3.915-2.869-5.387
	c-1.465-1.472-3.332-2.476-5.365-2.884c-2.033-0.409-4.141-0.204-6.058,0.587c-1.917,0.792-3.558,2.135-4.715,3.862
	c-1.157,1.726-1.78,3.758-1.788,5.838c-0.008,1.391,0.259,2.77,0.786,4.057c0.526,1.287,1.302,2.456,2.281,3.44
	c0.98,0.984,2.144,1.763,3.425,2.293C70.839,25.215,72.213,25.484,73.598,25.477z M140.012,89.612
	c-1.371-0.003-2.73,0.266-3.998,0.791c-1.268,0.525-2.421,1.295-3.392,2.267c-0.972,0.972-1.743,2.126-2.27,3.397
	c-0.527,1.271-0.799,2.634-0.801,4.01c-0.009,2.796,1.088,5.48,3.051,7.464c1.964,1.983,4.631,3.102,7.417,3.111
	c2.785,0.009,5.46-1.092,7.436-3.062c1.976-1.971,3.091-4.648,3.1-7.443c0.008-1.39-0.259-2.767-0.787-4.052
	c-0.527-1.285-1.304-2.451-2.286-3.432c-0.981-0.98-2.147-1.755-3.429-2.279C142.77,89.86,141.397,89.597,140.012,89.612z
	 M24.016,120.488c-2.785-0.017-5.462,1.078-7.442,3.042c-1.981,1.964-3.103,4.638-3.12,7.432c-0.017,2.795,1.073,5.482,3.031,7.47
	c1.957,1.988,4.621,3.114,7.406,3.13c1.379,0.01,2.746-0.254,4.023-0.775s2.44-1.29,3.421-2.262
	c0.981-0.972,1.762-2.128,2.298-3.403c0.536-1.275,0.817-2.644,0.826-4.027c0.009-1.384-0.254-2.756-0.773-4.038
	c-0.519-1.282-1.285-2.449-2.253-3.433c-0.969-0.985-2.121-1.769-3.391-2.307c-1.27-0.538-2.634-0.82-4.013-0.829H24.016z
	 M22.005,57.622c0.015-1.748-0.488-3.462-1.444-4.923c-0.956-1.462-2.323-2.605-3.928-3.286c-1.605-0.681-3.375-0.868-5.085-0.539
	c-1.711,0.33-3.286,1.161-4.525,2.39c-1.239,1.229-2.087,2.799-2.437,4.512c-0.349,1.713-0.184,3.491,0.475,5.11
	c0.659,1.619,1.782,3.004,3.226,3.982c1.444,0.978,3.146,1.503,4.888,1.509c1.153,0.01,2.298-0.208,3.367-0.643
	c1.069-0.435,2.042-1.078,2.863-1.891c0.821-0.814,1.473-1.782,1.919-2.85C21.769,59.925,22.001,58.779,22.005,57.622z
	 M36.353,122.494c0.248-0.208,0.456-0.359,0.628-0.536c7.917-7.548,15.83-15.097,23.739-22.645c0.354-0.308,0.652-0.677,0.88-1.088
	c0.5-1.047,0.471-2.208-0.522-2.813c-0.735-0.438-1.813-0.454-2.715-0.382c-0.465,0.038-0.908,0.65-1.323,1.044
	c-7.389,7.033-14.773,14.071-22.152,21.112c-0.628,0.609-1.304,1.183-1.933,1.747L36.353,122.494z M126.191,94.295
	c-0.075-0.066-0.109-0.12-0.157-0.129c-10.973-2.733-21.95-5.46-32.93-8.181c-1.257-0.315-2.266,0.189-2.828,1.407
	c-0.717,1.577,0.185,2.99,2.241,3.498c10.526,2.609,21.051,5.21,31.576,7.803c0.333,0.053,0.669,0.078,1.006,0.076
	C125.484,97.197,125.84,95.733,126.191,94.295z M71.26,29.877c-0.038,0.451-0.097,0.855-0.097,1.261c0,10.803,0,21.606,0,32.409
	c0,0.366-0.104,0.836,0.078,1.079c0.5,0.669,1.037,1.577,1.728,1.76c0.691,0.183,1.772-0.164,2.341-0.665
	c0.481-0.426,0.651-1.407,0.654-2.142c0.038-10.856,0.025-21.708,0.019-32.564c-0.02-0.381-0.064-0.76-0.132-1.135L71.26,29.877z
	 M129.479,15.164c0.006,1.222,0.374,2.414,1.056,3.426c0.682,1.012,1.647,1.799,2.774,2.26c1.127,0.461,2.366,0.577,3.558,0.333
	c1.193-0.245,2.287-0.839,3.143-1.707c0.856-0.868,1.437-1.972,1.668-3.171c0.232-1.199,0.104-2.441-0.367-3.567
	c-0.472-1.126-1.265-2.087-2.28-2.761c-1.016-0.674-2.207-1.031-3.425-1.025c-0.809,0.003-1.609,0.167-2.355,0.481
	c-0.746,0.314-1.423,0.773-1.993,1.35c-0.569,0.577-1.019,1.261-1.324,2.013C129.628,13.547,129.474,14.352,129.479,15.164z
	 M24.581,64.459l22.84,9.881c0.497-1.208,0.924-2.242,1.386-3.362L26.03,61.123L24.581,64.459z M129.972,24.232
	c-1.392,3.289-2.778,6.554-4.158,9.818c-0.814,1.924-1.649,3.838-2.426,5.781c-0.414,1.041-0.254,2.041,0.852,2.523
	c1.106,0.483,1.977,0.069,2.439-1.019c2.224-5.223,4.421-10.458,6.64-15.716L129.972,24.232z M102.632,62.548l-6.819,4.453
	l1.992,3.043l6.876-4.485L102.632,62.548z"/>
<path fill="#FFFFFF" fill-opacity="0.2" d="M56.629,86.123c-1.182-0.215-1.992-0.921-1.992-2.192c0-5.623,2.005-10.408,6.118-14.237
	c0.207-0.202,0.453-0.36,0.723-0.462c0.27-0.103,0.559-0.148,0.847-0.133c0.289,0.014,0.571,0.089,0.83,0.218
	c0.259,0.129,0.488,0.31,0.674,0.532c0.842,1.06,0.754,2.164-0.189,3.1c-2.473,2.365-4.061,5.512-4.497,8.913
	c-0.091,0.722-0.082,1.46-0.163,2.186c-0.041,0.587-0.311,1.133-0.751,1.522C57.789,85.958,57.214,86.157,56.629,86.123z"/>
</svg>
