<svg width="21" height="24" viewBox="0 0 21 24" fill="none" xmlns="http://www.w3.org/2000/svg">
<path d="M17.8995 12.1492V12.1493L12.7782 16.986L20.055 23.05V10.1134L17.8995 12.1492Z" fill="#D80027"/>
<path d="M0.650146 10.1134V23.05L7.92698 16.986L0.650146 10.1134Z" fill="#FF5023"/>
<path d="M7.92698 16.986L0.650146 23.05H10.3526V19.2768L7.92698 16.986Z" fill="#D80027"/>
<path d="M10.3525 19.2768V23.05H20.055L12.7781 16.986L10.3525 19.2768Z" fill="#A2001D"/>
<path d="M2.80587 8.07745L0.650146 10.1134H2.80571L2.80587 8.07745Z" fill="#FF5023"/>
<path d="M20.055 10.1134L17.8992 8.07733L17.8993 10.1134H20.055Z" fill="#FF5023"/>
<path d="M10.3526 0.950012L6.91431 4.19726L13.7822 4.18912L10.3526 0.950012Z" fill="#FF5023"/>
<path d="M17.8995 12.1492L20.0551 10.1134H17.8994L17.8995 12.1492Z" fill="#A2001D"/>
<path d="M10.3526 19.2768L2.80549 12.149L2.8057 10.1134H0.650146L7.92698 16.986L10.3526 19.2768Z" fill="#A2001D"/>
<path d="M2.80542 12.149L10.3525 19.2768L12.7781 16.986L17.8994 12.1493V12.1493L17.8993 10.1134L17.8991 8.07735L17.8989 4.18414L13.7821 4.1891L6.91424 4.19724L2.80617 4.20215L2.8058 8.07746L2.80564 10.1134L2.80542 12.149ZM5.5013 10.6524H15.2037V12.2695H5.5013V10.6524ZM5.5013 9.03536V7.41829H15.2037V9.03536H5.5013Z" fill="#DEDDE0"/>
<path d="M15.2038 7.41827H5.50134V9.03535H15.2038V7.41827Z" fill="white"/>
<path d="M15.2038 10.6525H5.50134V12.2695H15.2038V10.6525Z" fill="white"/>
</svg>
