<svg width="24" height="24" viewBox="0 0 24 24" fill="none" xmlns="http://www.w3.org/2000/svg">
<path d="M23.05 12.0006C23.05 5.89835 18.1031 0.950012 12 0.950012C5.89682 0.950012 0.949951 5.89835 0.949951 12.0006C0.949951 18.1031 5.89682 23.05 12 23.05C13.9648 23.05 15.8065 22.5326 17.4047 21.633C17.5845 21.5681 17.7138 21.3975 17.7138 21.1951C17.7138 21.0118 17.6075 20.8553 17.4539 20.7787L17.4548 20.7775L15.5309 19.5983L15.5301 19.5995C15.4493 19.5326 15.3471 19.4907 15.2339 19.4907C15.1638 19.4907 15.0981 19.5072 15.0386 19.5346L15.0344 19.5311C14.0965 19.9109 13.0725 20.1213 12 20.1213C7.52131 20.1213 3.87894 16.4787 3.87894 12.0006C3.87894 7.52314 7.52161 3.879 12 3.879C16.2202 3.879 19.6969 7.11562 20.0838 11.2359C20.0821 14.1861 18.7947 15.8307 17.7846 15.8307C17.2403 15.8307 16.8257 15.4682 16.8257 14.6647C16.8257 14.5094 16.8776 14.172 16.9035 14.0426L18.1302 8.17347H18.1249C18.1284 8.15255 18.1373 8.1334 18.1373 8.11159C18.1373 7.89531 17.9616 7.71968 17.7454 7.71968H15.6149C15.4213 7.71968 15.2678 7.8626 15.236 8.04735L15.2286 8.04706L15.0114 9.09283C14.4672 8.10805 13.3528 7.35636 11.7719 7.35636C8.76569 7.35636 5.91479 10.2335 5.91479 13.7061C5.91479 16.2199 7.41788 18.0598 9.93169 18.0598C11.3314 18.0598 12.7567 17.2563 13.6636 15.9869L13.6896 16.1421C13.8708 17.1269 16.59 18.3745 18.1452 18.3745C20.3997 18.3745 23.0417 16.8552 23.0417 12.5012L23.0352 12.4986C23.0432 12.333 23.05 12.1677 23.05 12.0006ZM13.9492 14.0167C13.379 14.8203 12.4461 15.7273 11.0723 15.7273C9.75047 15.7273 8.9472 14.7943 8.9472 13.4471C8.9472 11.5548 10.4244 9.68894 12.4976 9.68894C13.6639 9.68894 14.3378 10.4406 14.5968 11.0108L13.9492 14.0167Z" fill="#0080C7"/>
</svg>
