<?xml version="1.0" encoding="utf-8"?>
<!-- Generator: Adobe Illustrator 26.3.1, SVG Export Plug-In . SVG Version: 6.00 Build 0)  -->
<svg version="1.1" id="Layer_1" xmlns="http://www.w3.org/2000/svg" xmlns:xlink="http://www.w3.org/1999/xlink" x="0px" y="0px"
	 viewBox="0 0 105 99" enable-background="new 0 0 105 99" xml:space="preserve">
<path fill="#DDE7B0" d="M100.176,50.132c1.205-26.401-19.216-48.787-45.612-50C28.168-1.082,5.793,19.337,4.588,45.738
	c-1.205,26.401,19.216,48.787,45.612,50S98.971,76.533,100.176,50.132z"/>
<path fill="#DDE7B0" d="M91.001,72.454l1.522,25.94L79.414,76.966L91.001,72.454z"/>
<path fill="#C2D56C" d="M49.886,64.257L48.7,59.652c-0.755-2.931-0.994-5.467-0.717-7.609c0.277-2.142,0.882-4.117,1.704-5.8
	c0.892-1.714,1.774-3.267,2.755-4.787c1.311-1.898,2.482-3.735,3.414-5.544s1.099-3.825,0.541-6.143
	c-0.323-1.256-0.966-2.294-1.869-2.984c-0.903-0.69-1.956-1.159-2.989-1.402c-1.104-0.213-2.118-0.232-3.015,0.007
	c-1.793,0.479-3.199,1.254-4.258,2.419c-0.989,1.135-1.75,2.403-2.214,3.772c-0.433,1.434-0.767,2.902-1.002,4.404l-2.55,0.657
	l-9.452-2.518c0.144-1.151,0.448-2.684,0.943-4.533c0.495-1.849,1.408-3.883,2.729-5.941c1.292-2.123,3.11-4.011,5.395-5.795
	c2.285-1.784,5.256-3.17,8.911-4.158c3.586-0.958,6.89-1.248,10.012-0.836c3.122,0.411,5.824,1.552,8.105,3.422
	c2.311,1.934,3.951,4.786,4.881,8.649c0.803,3.22,1.032,5.916,0.545,8.15c-0.417,2.203-1.161,4.24-2.152,5.92
	c-1.032,1.775-2.023,3.455-3.085,5.165c-0.831,1.298-1.562,2.631-2.235,4.092c-0.672,1.462-1.046,3.025-1.262,4.751
	c-0.146,1.696,0.025,3.718,0.624,5.94l0.491,1.804L49.886,64.257z M61.144,80.974c-2.241,0.599-4.201,0.53-5.979-0.241
	c-1.708-0.801-2.808-2.104-3.298-3.908c-0.49-1.804-0.106-3.527,1.015-5.108c1.19-1.612,2.786-2.703,5.027-3.302
	c2.171-0.568,4.16-0.434,5.869,0.367c1.738,0.866,2.837,2.169,3.258,4.003c0.52,1.869,0.205,3.561-0.875,5.047
	C65.08,79.318,63.384,80.376,61.144,80.974z"/>
<path fill="#A6C426" d="M47.546,65.016l-1.186-4.605c-0.755-2.931-0.994-5.467-0.717-7.609c0.277-2.142,0.882-4.118,1.704-5.8
	c0.892-1.714,1.774-3.267,2.755-4.787c1.311-1.898,2.482-3.735,3.414-5.544c0.932-1.809,1.099-3.825,0.541-6.143
	c-0.323-1.256-0.966-2.294-1.869-2.984c-0.903-0.69-1.956-1.159-2.989-1.403c-1.104-0.213-2.118-0.232-3.015,0.007
	c-1.793,0.479-3.199,1.254-4.258,2.419c-1.059,1.166-1.75,2.403-2.214,3.772c-0.433,1.434-0.767,2.902-1.002,4.404l-12.071-1.83
	c0.144-1.151,0.448-2.683,0.943-4.533c0.495-1.849,1.408-3.883,2.729-5.941c1.292-2.123,3.11-4.011,5.395-5.795
	c2.285-1.783,5.256-3.169,8.911-4.158c3.585-0.958,6.89-1.248,10.012-0.837c3.123,0.411,5.824,1.552,8.105,3.422
	c2.311,1.934,3.951,4.785,4.881,8.649c0.803,3.22,1.032,5.916,0.545,8.15c-0.416,2.203-1.161,4.24-2.152,5.92
	c-1.032,1.775-2.023,3.455-3.084,5.165c-0.831,1.298-1.562,2.631-2.235,4.092c-0.672,1.461-1.046,3.025-1.262,4.751
	c-0.146,1.696,0.025,3.718,0.624,5.941l0.49,1.804L47.546,65.016z M58.804,81.733c-2.241,0.599-4.201,0.53-5.979-0.241
	c-1.708-0.801-2.807-2.104-3.298-3.908c-0.49-1.804-0.106-3.527,1.015-5.108c1.19-1.612,2.786-2.703,5.027-3.302
	c2.171-0.568,4.16-0.434,5.869,0.367c1.738,0.866,2.837,2.169,3.258,4.003c0.52,1.869,0.205,3.561-0.875,5.047
	C62.74,80.077,61.045,81.134,58.804,81.733z"/>
</svg>
