<?xml version="1.0" encoding="utf-8"?>
<!-- Generator: Adobe Illustrator 26.3.1, SVG Export Plug-In . SVG Version: 6.00 Build 0)  -->
<svg version="1.1" id="Layer_1" xmlns="http://www.w3.org/2000/svg" xmlns:xlink="http://www.w3.org/1999/xlink" x="0px" y="0px"
	 viewBox="0 0 131 108" enable-background="new 0 0 131 108" xml:space="preserve">
<path fill="#FFFFFF" fill-opacity="0.3" d="M84.006,2.568c2.407,1.37,4.992,2.496,7.189,4.155
	c7.15,5.361,11.146,12.603,12.113,21.514c0.042,0.384,0.094,0.766,0.132,1.066c2.117,0.356,4.185,0.585,6.198,1.062
	c5.824,1.375,10.579,4.503,14.388,9.096c1.018,1.227,0.878,2.598-0.314,3.211c-1.117,0.586-1.985,0.166-2.728-0.754
	c-2.566-3.155-5.927-5.565-9.735-6.984c-2.42-0.928-4.984-1.43-7.576-1.483c-0.856,3.387-1.696,6.654-2.548,9.989
	c0.173,0.027,0.348,0.039,0.523,0.036c5.733-0.296,10.264,1.847,12.998,6.952c2.633,4.917,2.305,9.889-1.106,14.364
	c-3.505,4.593-8.291,6.129-13.909,4.963c-6.257-1.299-11.838,0.935-15.392,6.244c-0.457,0.676-0.921,1.372-1.366,2.069
	c-1.623,2.55-1.054,5.517,1.357,7.113c2.258,1.494,5.193,0.861,6.875-1.501c0.477-0.67,0.928-1.367,1.394-2.052
	c1.38-2.026,2.758-2.571,5.129-2.067c12.278,2.619,24.117-4.301,27.691-16.241c1.227-4.115,1.274-8.492,0.135-12.63
	c-0.092-0.337-0.202-0.667-0.274-1.006c-0.26-1.192,0.26-2.182,1.303-2.488c1.042-0.307,2.039,0.192,2.425,1.39
	c0.99,3.073,1.407,6.303,1.228,9.529c-0.192,3.904-1.222,7.721-3.019,11.193c-1.796,3.472-4.318,6.516-7.393,8.925
	c-3.075,2.409-6.631,4.127-10.426,5.037c-3.796,0.91-7.741,0.99-11.567,0.235c-1.411-0.272-2.038,0.176-2.661,1.275
	c-1.887,3.33-4.68,5.265-8.593,5.094c-6.031-0.268-10.128-6.358-7.806-11.958c1.999-4.812,5.273-8.69,10.193-10.882
	c3.635-1.657,7.716-2.05,11.595-1.115c4.861,1.129,9.437-1.206,11.287-5.728c1.675-4.075,0.08-9.05-3.796-11.417
	c-3.091-1.883-6.333-1.979-9.558-0.274c-0.481,0.287-0.901,0.666-1.235,1.115c-5.828,7.25-13.334,11.298-22.632,11.826
	c-0.981,0.056-1.454,0.393-1.767,1.328c-0.507,1.519-0.991,3.098-1.813,4.454c-2.451,4.037-7.678,5.654-11.864,3.844
	c-4.607-1.989-7-6.792-5.701-11.559c1.285-4.672,3.072-9.065,6.853-12.373c3.781-3.307,8.094-4.954,13.065-5.184
	c5.37-0.248,9.286-3.619,10.429-8.791c1.124-5.082-1.948-10.521-6.949-12.302c-5.002-1.781-10.843,0.455-13.21,5.066
	c-0.284,0.54-0.535,1.096-0.75,1.667c-1.373,3.78-4.045,5.98-7.99,6.657c-0.144,0.042-0.284,0.098-0.417,0.167
	c-0.165,3.885-0.853,7.681-2.654,11.183c-0.842,1.619-1.773,3.19-2.79,4.705c-0.835,1.255-2.013,1.464-3.01,0.708
	c-0.915-0.695-1.002-1.838-0.132-3.023c2.689-3.624,4.288-7.941,4.61-12.442c0.084-1.077-0.064-1.715-1.23-2.276
	c-4.637-2.228-6.556-7.379-4.633-12.393c0.522-1.357,0.331-2.164-0.677-3.139c-6.42-6.203-13.995-8.556-22.626-6.271
	c-8.631,2.285-14.3,8.06-16.692,16.716c-0.657,2.381-0.689,4.987-0.679,7.491c0.014,3.044,2.348,5.128,5.195,4.982
	c2.847-0.146,4.836-2.452,4.705-5.494c-0.245-5.713,2.045-10.094,7.033-12.871c6.478-3.606,14.608-1.104,18.069,5.404
	c3.496,6.578,1.048,14.752-5.599,18.153c-3.419,1.751-6.14,4.062-7.711,7.621c-1.614,3.653-1.434,7.416-0.545,11.134
	c0.565,2.336,3.045,3.645,5.426,3.268c1.149-0.177,2.199-0.756,2.963-1.634c0.764-0.879,1.193-1.999,1.211-3.164
	c0.012-1.085-0.15-2.167-0.223-3.252c-0.136-2.068,0.626-3.64,2.538-4.588c0.817-0.407,1.596-0.89,2.416-1.291
	c1.092-0.536,2.175-0.213,2.696,0.759c0.495,0.92,0.203,1.944-0.744,2.609c-0.103,0.083-0.218,0.15-0.342,0.198
	c-2.327,0.743-2.78,2.233-2.515,4.634c0.556,5.071-3.155,9.281-8.093,9.671c-1.163,0.105-2.334-0.023-3.447-0.378
	c-1.112-0.354-2.142-0.927-3.03-1.685c-0.888-0.758-1.616-1.686-2.141-2.73c-0.525-1.044-0.837-2.182-0.918-3.349
	c-0.218-2.541-0.409-5.166-0.008-7.654c0.988-6.128,4.522-10.518,10.054-13.307c3.95-1.997,6.013-5.533,5.634-9.597
	c-0.233-2.443-1.405-4.699-3.27-6.289c-1.865-1.59-4.275-2.39-6.72-2.23c-2.445,0.16-4.734,1.267-6.381,3.086
	c-1.647,1.82-2.524,4.209-2.445,6.662c0.087,2.381-0.237,4.591-1.673,6.554c-2.141,2.927-5.851,4.311-9.216,3.443
	c-3.807-0.981-6.528-3.871-6.777-7.674c-0.157-2.493,0.158-5.021,0.259-7.537c0.019-0.427,0.092-0.854,0.15-1.276l1.656-4.959
	c0.431-0.746,0.873-1.483,1.297-2.233C10.578,7.588,27.746,2.766,40.554,10.334c2.328,1.374,4.413,3.154,6.67,4.792
	c0.127-0.181,0.345-0.49,0.563-0.801C54.044,5.361,62.663,0.793,73.56,0.771c2.65-0.01,5.307,0.634,7.971,0.971L84.006,2.568z
	 M81.57,5.819c-1.961-0.359-3.911-0.845-5.889-1.055c-12.128-1.287-23.804,6.287-27.62,17.837c-1.024,3.107,0.421,6.3,3.348,7.402
	c3.117,1.174,6.293-0.253,7.58-3.398c0.265-0.644,0.535-1.289,0.828-1.934c3.423-7.484,12.74-10.495,20.307-6.581
	c7.132,3.689,9.921,13.219,5.853,20.167c-2.809,4.804-7.028,7.366-12.584,7.618c-5.333,0.242-9.615,2.448-12.836,6.711
	c-1.796,2.382-2.625,5.202-3.409,8.005c-0.387,1.427-0.212,2.947,0.488,4.247c0.7,1.3,1.872,2.28,3.274,2.738
	c1.42,0.465,2.965,0.366,4.316-0.275c1.351-0.642,2.406-1.777,2.948-3.174c0.289-0.732,0.52-1.484,0.77-2.23
	c1.128-3.379,2.122-4.143,5.623-4.348c12.51-0.727,22.993-10.34,24.725-22.674c0.848-6.152-0.454-12.406-3.684-17.702
	C92.378,11.877,87.419,7.866,81.57,5.819z"/>
<path fill="#FFFFFF" fill-opacity="0.3" d="M64.621,87.171c-0.625,1.823-1.775,3.42-3.304,4.59c-1.529,1.17-3.37,1.861-5.289,1.985
	c-1.919,0.124-3.831-0.324-5.495-1.288c-1.664-0.964-3.005-2.4-3.853-4.128c-0.849-1.728-1.168-3.669-0.916-5.579
	c0.252-1.91,1.062-3.704,2.329-5.155s2.935-2.494,4.792-2.997c1.857-0.503,3.82-0.445,5.642,0.169
	c2.45,0.834,4.469,2.608,5.611,4.934C65.281,82.028,65.455,84.714,64.621,87.171z M60.932,85.836
	c0.45-1.457,0.312-3.033-0.384-4.388c-0.696-1.355-1.894-2.383-3.339-2.862c-1.444-0.479-3.019-0.373-4.387,0.298
	c-1.368,0.67-2.421,1.85-2.932,3.288c-0.26,0.731-0.372,1.507-0.329,2.282c0.043,0.775,0.24,1.533,0.58,2.23
	c0.339,0.697,0.814,1.319,1.397,1.829c0.583,0.51,1.261,0.899,1.996,1.143c0.735,0.244,1.511,0.339,2.284,0.278
	s1.525-0.275,2.214-0.631c0.689-0.356,1.3-0.845,1.798-1.441C60.328,87.267,60.703,86.578,60.932,85.836z"/>
<path fill="#FFFFFF" fill-opacity="0.3" d="M34.375,75.047c4.635,1.573,7.189,6.805,5.561,11.415
	c-0.581,1.669-1.642,3.13-3.049,4.197c-1.407,1.068-3.098,1.694-4.859,1.801c-1.761,0.107-3.513-0.311-5.036-1.201
	s-2.748-2.212-3.522-3.799c-0.773-1.587-1.06-3.369-0.824-5.121c0.236-1.752,0.984-3.395,2.151-4.723
	c1.166-1.328,2.698-2.28,4.403-2.738C30.904,74.423,32.705,74.481,34.375,75.047z M36.252,85.169
	c0.326-0.944,0.363-1.963,0.109-2.927c-0.254-0.965-0.789-1.831-1.537-2.489c-0.748-0.658-1.675-1.078-2.662-1.207
	c-0.988-0.129-1.991,0.04-2.884,0.485s-1.633,1.145-2.127,2.012c-0.494,0.867-0.72,1.862-0.648,2.857
	c0.072,0.995,0.437,1.946,1.05,2.732c0.613,0.786,1.446,1.371,2.392,1.68c1.252,0.399,2.61,0.294,3.787-0.293
	S35.813,86.41,36.252,85.169z"/>
<path fill="#FFFFFF" fill-opacity="0.3" d="M83.988,100.98c-0.551,1.681-1.588,3.161-2.979,4.252
	c-1.391,1.091-3.073,1.744-4.834,1.876c-1.761,0.132-3.52-0.262-5.055-1.134c-1.535-0.871-2.776-2.18-3.566-3.761
	c-0.79-1.58-1.094-3.36-0.872-5.115c0.222-1.755,0.958-3.405,2.117-4.741c1.159-1.336,2.687-2.298,4.39-2.763
	c1.704-0.465,3.506-0.414,5.179,0.149c2.224,0.756,4.06,2.358,5.112,4.462C84.532,96.307,84.714,98.741,83.988,100.98z
	 M80.268,99.738c0.408-1.252,0.307-2.614-0.281-3.79c-0.588-1.176-1.615-2.073-2.859-2.495c-1.264-0.422-2.645-0.324-3.838,0.274
	c-1.193,0.598-2.101,1.645-2.525,2.912c-0.423,1.267-0.327,2.65,0.268,3.845c0.595,1.195,1.639,2.103,2.903,2.525
	c0.629,0.203,1.292,0.279,1.951,0.225c0.659-0.055,1.301-0.239,1.889-0.542c0.588-0.303,1.111-0.72,1.539-1.225
	c0.428-0.506,0.752-1.091,0.954-1.722L80.268,99.738z"/>
</svg>
