<?xml version="1.0" encoding="utf-8"?>
<!-- Generator: Adobe Illustrator 26.3.1, SVG Export Plug-In . SVG Version: 6.00 Build 0)  -->
<svg version="1.1" id="Layer_1" xmlns="http://www.w3.org/2000/svg" xmlns:xlink="http://www.w3.org/1999/xlink" x="0px" y="0px"
	 viewBox="0 0 120 125" enable-background="new 0 0 120 125" xml:space="preserve">
<path fill="#DDE7B0" d="M110.075,78.256c12.568-27.695,0.314-60.334-27.371-72.901C55.02-7.211,22.389,5.053,9.821,32.748
	c-12.568,27.695-0.314,60.334,27.371,72.901C64.876,118.216,97.507,105.952,110.075,78.256z"/>
<path fill="#DDE7B0" d="M26.867,95.18l6.245,29.237l8-27.759L26.867,95.18z"/>
<path fill="#C2D56C" d="M52.637,72.868l0.132-5.567c0.087-3.452,0.611-6.38,1.547-8.649c1.01-2.252,2.261-4.167,3.756-5.743
	c1.494-1.576,3.035-3.001,4.609-4.205c2.118-1.578,3.939-3.222,5.596-4.833c1.657-1.611,2.49-3.761,2.526-6.587
	c0.008-1.557-0.351-2.842-1.213-3.957c-0.788-1.098-1.855-1.976-2.964-2.651c-1.183-0.691-2.362-1.028-3.433-1.127
	c-2.231-0.148-4.098,0.211-5.588,1.009c-1.504,0.866-2.738,1.934-3.729,3.34c-0.991,1.406-1.834,2.846-2.555,4.455l-3.079-0.197
	l-9.924-6.342c0.489-1.236,1.27-2.76,2.522-4.675c1.163-1.863,2.802-3.762,4.962-5.542c2.16-1.781,4.8-3.241,7.995-4.364
	c3.194-1.123,7.023-1.536,11.396-1.19c4.313,0.262,8.249,1.219,11.659,2.837c3.41,1.618,6.145,3.862,8.177,6.87
	c2.032,3.008,2.975,6.762,2.889,11.347c-0.082,3.807-0.723,6.921-1.896,9.208c-1.173,2.286-2.662,4.218-4.305,5.761
	c-1.718,1.526-3.436,3.052-5.14,4.511c-1.322,1.119-2.584,2.323-3.799,3.679c-1.215,1.356-2.16,2.914-2.862,4.811
	c-0.688,1.829-1.074,4.08-1.156,6.753l-0.059,2.183L52.637,72.868z M60.212,95.542c-2.767-0.198-4.933-1.039-6.736-2.508
	c-1.729-1.452-2.587-3.345-2.513-5.595c0.06-2.183,0.958-3.893,2.797-5.251c1.839-1.357,4.06-1.92,6.753-1.739
	c2.692,0.181,4.844,1.09,6.545,2.677c1.701,1.587,2.484,3.464,2.499,5.663c-0.073,2.25-0.897,3.978-2.634,5.216
	C65.2,95.177,62.978,95.74,60.212,95.542z"/>
<path fill="#A6C426" d="M49.837,72.601l0.132-5.567c0.087-3.452,0.612-6.38,1.547-8.649c1.009-2.252,2.261-4.167,3.756-5.743
	c1.494-1.576,3.035-3.001,4.609-4.205c2.118-1.578,3.939-3.222,5.596-4.833c1.657-1.611,2.49-3.761,2.526-6.587
	c0.008-1.557-0.351-2.842-1.213-3.957c-0.788-1.098-1.855-1.976-2.963-2.651c-1.183-0.691-2.362-1.028-3.433-1.127
	c-2.231-0.148-4.098,0.211-5.589,1.009c-1.504,0.866-2.738,1.934-3.729,3.34c-0.991,1.406-1.834,2.846-2.555,4.455l-13.002-6.539
	c0.488-1.236,1.27-2.76,2.522-4.675c1.163-1.863,2.802-3.762,4.962-5.542c2.16-1.781,4.8-3.241,7.995-4.364
	c3.194-1.123,7.023-1.536,11.396-1.19c4.313,0.262,8.249,1.219,11.659,2.837c3.41,1.618,6.145,3.863,8.177,6.87
	c2.032,3.008,2.975,6.762,2.889,11.347c-0.082,3.807-0.723,6.921-1.896,9.208c-1.173,2.286-2.662,4.218-4.305,5.761
	c-1.718,1.526-3.436,3.052-5.14,4.511c-1.322,1.119-2.584,2.323-3.799,3.679c-1.215,1.356-2.16,2.914-2.862,4.811
	c-0.688,1.829-1.074,4.08-1.156,6.753l-0.059,2.183L49.837,72.601z M57.413,95.275c-2.767-0.198-4.933-1.039-6.736-2.508
	c-1.729-1.452-2.587-3.345-2.513-5.595c0.059-2.183,0.957-3.893,2.797-5.251c1.839-1.357,4.06-1.92,6.752-1.739
	c2.692,0.181,4.844,1.09,6.545,2.677c1.701,1.587,2.484,3.464,2.499,5.663c-0.073,2.25-0.897,3.978-2.634,5.216
	C62.401,94.91,60.179,95.472,57.413,95.275z"/>
</svg>
